<mxfile host="app.diagrams.net" modified="2024-07-15T13:14:48.615Z" agent="Mozilla/5.0 (Macintosh; Intel Mac OS X 10_15_7) AppleWebKit/537.36 (KHTML, like Gecko) Chrome/126.0.0.0 Safari/537.36" etag="KrxzdAVB-cd1CipIH9Vu" version="24.6.4" type="device">
  <diagram name="Page-1" id="2z_yzARBqiGoR72a2h59">
    <mxGraphModel dx="2899" dy="2359" grid="1" gridSize="10" guides="1" tooltips="1" connect="1" arrows="1" fold="1" page="1" pageScale="1" pageWidth="850" pageHeight="1100" math="0" shadow="0">
      <root>
        <mxCell id="0" />
        <mxCell id="1" parent="0" />
        <mxCell id="HeFp6EwtRoWDKLP-dGdm-49" value="" style="whiteSpace=wrap;html=1;fillColor=none;dashed=1;dashPattern=1 2;" parent="1" vertex="1">
          <mxGeometry x="-589.5" y="-550" width="2061" height="1820" as="geometry" />
        </mxCell>
        <mxCell id="BtRRs1AipNndvJUo6PaD-9" value="" style="group" parent="1" vertex="1" connectable="0">
          <mxGeometry x="-69" y="160" width="156" height="183" as="geometry" />
        </mxCell>
        <mxCell id="BtRRs1AipNndvJUo6PaD-10" value="" style="whiteSpace=wrap;html=1;dashed=1;dashPattern=8 8;fillColor=none;strokeColor=#9673a6;" parent="BtRRs1AipNndvJUo6PaD-9" vertex="1">
          <mxGeometry width="156" height="183" as="geometry" />
        </mxCell>
        <mxCell id="BtRRs1AipNndvJUo6PaD-11" value="CBS Adapters" style="text;html=1;align=center;verticalAlign=middle;whiteSpace=wrap;rounded=0;fontSize=9;fillColor=#d5e8d4;strokeColor=#82b366;" parent="BtRRs1AipNndvJUo6PaD-9" vertex="1">
          <mxGeometry width="75" height="23" as="geometry" />
        </mxCell>
        <mxCell id="BtRRs1AipNndvJUo6PaD-14" value="" style="whiteSpace=wrap;html=1;dashed=1;dashPattern=8 8;fillColor=none;strokeColor=#9673a6;movable=1;resizable=1;rotatable=1;deletable=1;editable=1;locked=0;connectable=1;" parent="1" vertex="1">
          <mxGeometry x="-72" y="392" width="156" height="183" as="geometry" />
        </mxCell>
        <mxCell id="BtRRs1AipNndvJUo6PaD-3" value="" style="whiteSpace=wrap;html=1;" parent="1" vertex="1">
          <mxGeometry x="-62" y="160" width="149" height="184" as="geometry" />
        </mxCell>
        <mxCell id="o0oqG4mP_P4ncCSwfBv9-4" style="edgeStyle=orthogonalEdgeStyle;rounded=0;orthogonalLoop=1;jettySize=auto;html=1;flowAnimation=1;dashed=1;dashPattern=12 12;" parent="1" edge="1">
          <mxGeometry relative="1" as="geometry">
            <mxPoint x="1286" y="421.76923076923094" as="sourcePoint" />
            <mxPoint x="687.0000000000005" y="433" as="targetPoint" />
          </mxGeometry>
        </mxCell>
        <mxCell id="o0oqG4mP_P4ncCSwfBv9-2" value="" style="whiteSpace=wrap;html=1;dashed=1;" parent="1" vertex="1">
          <mxGeometry x="-90" y="-290" width="1120" height="1270" as="geometry" />
        </mxCell>
        <mxCell id="o0oqG4mP_P4ncCSwfBv9-6" style="edgeStyle=orthogonalEdgeStyle;rounded=0;orthogonalLoop=1;jettySize=auto;html=1;entryX=1;entryY=0.25;entryDx=0;entryDy=0;flowAnimation=1;dashed=1;dashPattern=8 8;" parent="1" source="99kWtLQciDEQo7Vpjnh6-8" target="o0oqG4mP_P4ncCSwfBv9-5" edge="1">
          <mxGeometry relative="1" as="geometry" />
        </mxCell>
        <mxCell id="o0oqG4mP_P4ncCSwfBv9-8" style="edgeStyle=orthogonalEdgeStyle;rounded=0;orthogonalLoop=1;jettySize=auto;html=1;exitX=0.5;exitY=0;exitDx=0;exitDy=0;entryX=0.5;entryY=1;entryDx=0;entryDy=0;flowAnimation=1;dashed=1;dashPattern=8 8;" parent="1" source="o0oqG4mP_P4ncCSwfBv9-5" target="o0oqG4mP_P4ncCSwfBv9-7" edge="1">
          <mxGeometry relative="1" as="geometry">
            <Array as="points">
              <mxPoint x="571" y="172" />
              <mxPoint x="250" y="172" />
              <mxPoint x="250" y="86" />
            </Array>
          </mxGeometry>
        </mxCell>
        <mxCell id="99kWtLQciDEQo7Vpjnh6-13" value="authentication/authorization" style="edgeLabel;html=1;align=center;verticalAlign=middle;resizable=0;points=[];" parent="o0oqG4mP_P4ncCSwfBv9-8" vertex="1" connectable="0">
          <mxGeometry x="0.6942" y="1" relative="1" as="geometry">
            <mxPoint as="offset" />
          </mxGeometry>
        </mxCell>
        <mxCell id="o0oqG4mP_P4ncCSwfBv9-10" style="edgeStyle=orthogonalEdgeStyle;rounded=0;orthogonalLoop=1;jettySize=auto;html=1;exitX=0;exitY=0.5;exitDx=0;exitDy=0;entryX=1;entryY=0.5;entryDx=0;entryDy=0;dashed=1;flowAnimation=1;" parent="1" source="o0oqG4mP_P4ncCSwfBv9-5" target="o0oqG4mP_P4ncCSwfBv9-9" edge="1">
          <mxGeometry relative="1" as="geometry" />
        </mxCell>
        <mxCell id="o0oqG4mP_P4ncCSwfBv9-13" style="edgeStyle=orthogonalEdgeStyle;rounded=0;orthogonalLoop=1;jettySize=auto;html=1;exitX=0.25;exitY=1;exitDx=0;exitDy=0;entryX=0.25;entryY=0;entryDx=0;entryDy=0;flowAnimation=1;" parent="1" source="o0oqG4mP_P4ncCSwfBv9-5" target="o0oqG4mP_P4ncCSwfBv9-11" edge="1">
          <mxGeometry relative="1" as="geometry">
            <Array as="points">
              <mxPoint x="541" y="403" />
              <mxPoint x="600" y="403" />
              <mxPoint x="600" y="590" />
            </Array>
          </mxGeometry>
        </mxCell>
        <mxCell id="HeFp6EwtRoWDKLP-dGdm-45" style="edgeStyle=orthogonalEdgeStyle;rounded=0;orthogonalLoop=1;jettySize=auto;html=1;exitX=1;exitY=0;exitDx=0;exitDy=0;entryX=0;entryY=0.5;entryDx=0;entryDy=0;dashed=1;flowAnimation=1;dashPattern=8 8;" parent="1" source="o0oqG4mP_P4ncCSwfBv9-5" target="HeFp6EwtRoWDKLP-dGdm-44" edge="1">
          <mxGeometry relative="1" as="geometry" />
        </mxCell>
        <mxCell id="99kWtLQciDEQo7Vpjnh6-14" value="localization" style="edgeLabel;html=1;align=center;verticalAlign=middle;resizable=0;points=[];" parent="HeFp6EwtRoWDKLP-dGdm-45" vertex="1" connectable="0">
          <mxGeometry x="-0.4088" y="1" relative="1" as="geometry">
            <mxPoint as="offset" />
          </mxGeometry>
        </mxCell>
        <mxCell id="o0oqG4mP_P4ncCSwfBv9-5" value="api gateway" style="whiteSpace=wrap;html=1;fillColor=#fff2cc;strokeColor=#d6b656;" parent="1" vertex="1">
          <mxGeometry x="511" y="234" width="120" height="60" as="geometry" />
        </mxCell>
        <mxCell id="BtRRs1AipNndvJUo6PaD-23" style="edgeStyle=orthogonalEdgeStyle;rounded=0;orthogonalLoop=1;jettySize=auto;html=1;exitX=1;exitY=0.5;exitDx=0;exitDy=0;entryX=0.5;entryY=1;entryDx=0;entryDy=0;dashed=1;flowAnimation=1;dashPattern=12 12;" parent="1" source="o0oqG4mP_P4ncCSwfBv9-7" target="BtRRs1AipNndvJUo6PaD-22" edge="1">
          <mxGeometry relative="1" as="geometry" />
        </mxCell>
        <mxCell id="aZxM8rf4FDybqePDUtTl-4" style="edgeStyle=orthogonalEdgeStyle;rounded=0;orthogonalLoop=1;jettySize=auto;html=1;exitX=0;exitY=0.5;exitDx=0;exitDy=0;entryX=0.75;entryY=0;entryDx=0;entryDy=0;dashed=1;flowAnimation=1;" parent="1" source="o0oqG4mP_P4ncCSwfBv9-7" target="BtRRs1AipNndvJUo6PaD-16" edge="1">
          <mxGeometry relative="1" as="geometry">
            <Array as="points">
              <mxPoint x="214" y="53" />
              <mxPoint x="49" y="53" />
            </Array>
          </mxGeometry>
        </mxCell>
        <mxCell id="o0oqG4mP_P4ncCSwfBv9-7" value="auth service" style="whiteSpace=wrap;html=1;fillColor=#fff2cc;strokeColor=#d6b656;" parent="1" vertex="1">
          <mxGeometry x="178" y="26" width="120" height="60" as="geometry" />
        </mxCell>
        <mxCell id="o0oqG4mP_P4ncCSwfBv9-12" style="edgeStyle=orthogonalEdgeStyle;rounded=0;orthogonalLoop=1;jettySize=auto;html=1;exitX=0.75;exitY=1;exitDx=0;exitDy=0;entryX=0;entryY=0.25;entryDx=0;entryDy=0;flowAnimation=1;" parent="1" source="o0oqG4mP_P4ncCSwfBv9-9" target="o0oqG4mP_P4ncCSwfBv9-11" edge="1">
          <mxGeometry relative="1" as="geometry" />
        </mxCell>
        <mxCell id="o0oqG4mP_P4ncCSwfBv9-15" style="edgeStyle=orthogonalEdgeStyle;rounded=0;orthogonalLoop=1;jettySize=auto;html=1;exitX=0.25;exitY=0;exitDx=0;exitDy=0;dashed=1;flowAnimation=1;entryX=1.022;entryY=0.409;entryDx=0;entryDy=0;entryPerimeter=0;" parent="1" source="o0oqG4mP_P4ncCSwfBv9-9" target="BtRRs1AipNndvJUo6PaD-16" edge="1">
          <mxGeometry relative="1" as="geometry">
            <Array as="points">
              <mxPoint x="229" y="212" />
              <mxPoint x="111" y="212" />
              <mxPoint x="111" y="229" />
            </Array>
          </mxGeometry>
        </mxCell>
        <mxCell id="BtRRs1AipNndvJUo6PaD-21" value="core-banking" style="edgeLabel;html=1;align=center;verticalAlign=middle;resizable=0;points=[];" parent="o0oqG4mP_P4ncCSwfBv9-15" vertex="1" connectable="0">
          <mxGeometry x="0.1144" y="1" relative="1" as="geometry">
            <mxPoint x="25" as="offset" />
          </mxGeometry>
        </mxCell>
        <mxCell id="BtRRs1AipNndvJUo6PaD-18" value="payments" style="edgeStyle=orthogonalEdgeStyle;rounded=0;orthogonalLoop=1;jettySize=auto;html=1;exitX=0;exitY=0.75;exitDx=0;exitDy=0;entryX=1;entryY=0.5;entryDx=0;entryDy=0;flowAnimation=1;dashed=1;dashPattern=12 12;" parent="1" source="o0oqG4mP_P4ncCSwfBv9-9" target="BtRRs1AipNndvJUo6PaD-5" edge="1">
          <mxGeometry relative="1" as="geometry">
            <Array as="points">
              <mxPoint x="194" y="287" />
              <mxPoint x="141" y="287" />
              <mxPoint x="141" y="483" />
            </Array>
          </mxGeometry>
        </mxCell>
        <mxCell id="aCFFJ5pKeUEbw9vKNob2-1" style="edgeStyle=orthogonalEdgeStyle;rounded=0;orthogonalLoop=1;jettySize=auto;html=1;exitX=0.25;exitY=1;exitDx=0;exitDy=0;entryX=1;entryY=0.5;entryDx=0;entryDy=0;flowAnimation=1;dashed=1;dashPattern=8 8;" parent="1" source="o0oqG4mP_P4ncCSwfBv9-9" target="HeFp6EwtRoWDKLP-dGdm-57" edge="1">
          <mxGeometry relative="1" as="geometry" />
        </mxCell>
        <mxCell id="aCFFJ5pKeUEbw9vKNob2-2" value="cards" style="edgeLabel;html=1;align=center;verticalAlign=middle;resizable=0;points=[];" parent="aCFFJ5pKeUEbw9vKNob2-1" vertex="1" connectable="0">
          <mxGeometry x="0.0912" y="3" relative="1" as="geometry">
            <mxPoint as="offset" />
          </mxGeometry>
        </mxCell>
        <mxCell id="o0oqG4mP_P4ncCSwfBv9-9" value="banking service" style="whiteSpace=wrap;html=1;fillColor=#fff2cc;strokeColor=#d6b656;" parent="1" vertex="1">
          <mxGeometry x="166" y="264" width="120" height="60" as="geometry" />
        </mxCell>
        <mxCell id="HeFp6EwtRoWDKLP-dGdm-34" style="edgeStyle=orthogonalEdgeStyle;rounded=0;orthogonalLoop=1;jettySize=auto;html=1;exitX=0;exitY=0.75;exitDx=0;exitDy=0;entryX=0.5;entryY=0;entryDx=0;entryDy=0;dashed=1;flowAnimation=1;dashPattern=8 8;" parent="1" source="o0oqG4mP_P4ncCSwfBv9-11" target="HeFp6EwtRoWDKLP-dGdm-29" edge="1">
          <mxGeometry relative="1" as="geometry" />
        </mxCell>
        <mxCell id="HeFp6EwtRoWDKLP-dGdm-37" value="kyc" style="edgeLabel;html=1;align=center;verticalAlign=middle;resizable=0;points=[];" parent="HeFp6EwtRoWDKLP-dGdm-34" vertex="1" connectable="0">
          <mxGeometry x="0.2173" y="2" relative="1" as="geometry">
            <mxPoint as="offset" />
          </mxGeometry>
        </mxCell>
        <mxCell id="o0oqG4mP_P4ncCSwfBv9-11" value="user service" style="whiteSpace=wrap;html=1;fillColor=#fff2cc;strokeColor=#d6b656;" parent="1" vertex="1">
          <mxGeometry x="569" y="590" width="120" height="60" as="geometry" />
        </mxCell>
        <mxCell id="o0oqG4mP_P4ncCSwfBv9-17" style="edgeStyle=orthogonalEdgeStyle;rounded=0;orthogonalLoop=1;jettySize=auto;html=1;flowAnimation=1;dashed=1;entryX=1;entryY=0.5;entryDx=0;entryDy=0;" parent="1" source="o0oqG4mP_P4ncCSwfBv9-14" target="o0oqG4mP_P4ncCSwfBv9-16" edge="1">
          <mxGeometry relative="1" as="geometry" />
        </mxCell>
        <mxCell id="BVrxlMUURqbPdi6F0R62-22" value="API" style="edgeLabel;html=1;align=center;verticalAlign=middle;resizable=0;points=[];" vertex="1" connectable="0" parent="o0oqG4mP_P4ncCSwfBv9-17">
          <mxGeometry x="0.3534" y="1" relative="1" as="geometry">
            <mxPoint as="offset" />
          </mxGeometry>
        </mxCell>
        <mxCell id="BtRRs1AipNndvJUo6PaD-2" style="edgeStyle=orthogonalEdgeStyle;rounded=0;orthogonalLoop=1;jettySize=auto;html=1;exitX=0;exitY=0.5;exitDx=0;exitDy=0;flowAnimation=1;dashed=1;" parent="1" source="BtRRs1AipNndvJUo6PaD-4" target="BtRRs1AipNndvJUo6PaD-1" edge="1">
          <mxGeometry relative="1" as="geometry" />
        </mxCell>
        <mxCell id="BVrxlMUURqbPdi6F0R62-23" value="API" style="edgeLabel;html=1;align=center;verticalAlign=middle;resizable=0;points=[];" vertex="1" connectable="0" parent="BtRRs1AipNndvJUo6PaD-2">
          <mxGeometry x="0.5376" y="1" relative="1" as="geometry">
            <mxPoint as="offset" />
          </mxGeometry>
        </mxCell>
        <mxCell id="o0oqG4mP_P4ncCSwfBv9-14" value="mambu-adapter" style="whiteSpace=wrap;html=1;fillColor=#f8cecc;strokeColor=#b85450;" parent="1" vertex="1">
          <mxGeometry x="-55" y="188" width="116" height="34" as="geometry" />
        </mxCell>
        <mxCell id="o0oqG4mP_P4ncCSwfBv9-16" value="Mambu CBS" style="whiteSpace=wrap;html=1;fillColor=#f8cecc;strokeColor=#b85450;" parent="1" vertex="1">
          <mxGeometry x="-309" y="100" width="120" height="98" as="geometry" />
        </mxCell>
        <mxCell id="BVrxlMUURqbPdi6F0R62-6" style="edgeStyle=orthogonalEdgeStyle;rounded=0;orthogonalLoop=1;jettySize=auto;html=1;exitX=0.5;exitY=1;exitDx=0;exitDy=0;entryX=1;entryY=0.75;entryDx=0;entryDy=0;dashed=1;dashPattern=8 8;flowAnimation=1;" edge="1" parent="1" source="BtRRs1AipNndvJUo6PaD-1" target="BVrxlMUURqbPdi6F0R62-4">
          <mxGeometry relative="1" as="geometry" />
        </mxCell>
        <mxCell id="BVrxlMUURqbPdi6F0R62-7" value="webhook" style="edgeLabel;html=1;align=center;verticalAlign=middle;resizable=0;points=[];" vertex="1" connectable="0" parent="BVrxlMUURqbPdi6F0R62-6">
          <mxGeometry x="-0.118" relative="1" as="geometry">
            <mxPoint as="offset" />
          </mxGeometry>
        </mxCell>
        <mxCell id="BtRRs1AipNndvJUo6PaD-1" value="Tuum CBS" style="whiteSpace=wrap;html=1;fillColor=#f8cecc;strokeColor=#b85450;" parent="1" vertex="1">
          <mxGeometry x="-309" y="239" width="120" height="101" as="geometry" />
        </mxCell>
        <mxCell id="BtRRs1AipNndvJUo6PaD-8" value="" style="group" parent="1" vertex="1" connectable="0">
          <mxGeometry x="-66" y="154" width="155" height="183" as="geometry" />
        </mxCell>
        <mxCell id="BtRRs1AipNndvJUo6PaD-16" value="" style="whiteSpace=wrap;html=1;dashed=1;dashPattern=8 8;fillColor=none;strokeColor=#9673a6;" parent="BtRRs1AipNndvJUo6PaD-8" vertex="1">
          <mxGeometry x="-0.9935897435897436" width="155" height="183" as="geometry" />
        </mxCell>
        <mxCell id="BtRRs1AipNndvJUo6PaD-6" value="CBS Adapters" style="text;html=1;align=center;verticalAlign=middle;whiteSpace=wrap;rounded=0;fontSize=9;fillColor=#d5e8d4;strokeColor=#82b366;" parent="BtRRs1AipNndvJUo6PaD-8" vertex="1">
          <mxGeometry width="74.51923076923077" height="23" as="geometry" />
        </mxCell>
        <mxCell id="99kWtLQciDEQo7Vpjnh6-22" value="" style="shape=image;verticalLabelPosition=bottom;labelBackgroundColor=#ffffff;verticalAlign=top;aspect=fixed;imageAspect=0;image=data:image/svg+xml,PHN2ZyB4bWxuczpldj0iaHR0cDovL3d3dy53My5vcmcvMjAwMS94bWwtZXZlbnRzIiB4bWxucz0iaHR0cDovL3d3dy53My5vcmcvMjAwMC9zdmciIHhtbG5zOnhsaW5rPSJodHRwOi8vd3d3LnczLm9yZy8xOTk5L3hsaW5rIiB2ZXJzaW9uPSIxLjEiIGlkPSJMYXllcl8xIiB4PSIwcHgiIHk9IjBweCIgdmlld0JveD0iMCAwIDYyLjI1IDM0LjUiIHN0eWxlPSJlbmFibGUtYmFja2dyb3VuZDpuZXcgMCAwIDYyLjI1IDM0LjU7IiB4bWw6c3BhY2U9InByZXNlcnZlIj4mI3hhOzxnPiYjeGE7CTx0aXRsZT5QYWdlLTE8L3RpdGxlPiYjeGE7CTxnIGlkPSJncm91cDM3MDItMSIgdHJhbnNmb3JtPSJ0cmFuc2xhdGUoMS41LC0xLjUpIj4mI3hhOwkJPHRpdGxlPkFkYXB0ZXIvQ29ubmVjdG9yPC90aXRsZT4mI3hhOwkJPGcgaWQ9InNoYXBlMzcwMy0yIiB0cmFuc2Zvcm09InRyYW5zbGF0ZSgtOSwzMi4yNSkgcm90YXRlKC05MCkiPiYjeGE7CQkJPHRpdGxlPmxpbmUxNTU5ODwvdGl0bGU+JiN4YTsJCQk8cGF0aCBzdHlsZT0iZmlsbDpub25lO3N0cm9rZTojNTU2QThBO3N0cm9rZS13aWR0aDoxLjU7c3Ryb2tlLW1pdGVybGltaXQ6MzsiIGQ9Ik0xLjUsMzZoMjkuMjUiLz4mI3hhOwkJPC9nPiYjeGE7CQk8ZyBpZD0ic2hhcGUzNzA0LTUiIHRyYW5zZm9ybT0idHJhbnNsYXRlKDcwLjUsMykgcm90YXRlKDkwKSI+JiN4YTsJCQk8dGl0bGU+bGluZTE1NjAwPC90aXRsZT4mI3hhOwkJCTxwYXRoIHN0eWxlPSJmaWxsOm5vbmU7c3Ryb2tlOiM1NTZBOEE7c3Ryb2tlLXdpZHRoOjEuNTtzdHJva2UtbWl0ZXJsaW1pdDozOyIgZD0iTS0xLjUsMzcuNWgyNyIvPiYjeGE7CQk8L2c+JiN4YTsJCTxnIGlkPSJzaGFwZTM3MDUtOCIgdHJhbnNmb3JtPSJ0cmFuc2xhdGUoNjEuNSw2NC41KSByb3RhdGUoMTgwKSI+JiN4YTsJCQk8dGl0bGU+bGluZTE1NjAyPC90aXRsZT4mI3hhOwkJCTxwYXRoIHN0eWxlPSJmaWxsOm5vbmU7c3Ryb2tlOiM1NTZBOEE7c3Ryb2tlLXdpZHRoOjEuNTtzdHJva2UtbWl0ZXJsaW1pdDozOyIgZD0iTTAuNzUsMzguMjVoNjEuNSIvPiYjeGE7CQk8L2c+JiN4YTsJCTxnIGlkPSJzaGFwZTM3MDYtMTEiIHRyYW5zZm9ybT0idHJhbnNsYXRlKDYxLjUsNzAuNSkgcm90YXRlKDE4MCkiPiYjeGE7CQkJPHRpdGxlPmxpbmUxNTYwNDwvdGl0bGU+JiN4YTsJCQk8cGF0aCBzdHlsZT0iZmlsbDpub25lO3N0cm9rZTojNTU2QThBO3N0cm9rZS13aWR0aDoxLjU7c3Ryb2tlLW1pdGVybGltaXQ6MzsiIGQ9Ik0wLjc1LDM4LjI1aDYxLjUiLz4mI3hhOwkJPC9nPiYjeGE7CQk8ZyBpZD0ic2hhcGUzNzA3LTE0IiB0cmFuc2Zvcm09InRyYW5zbGF0ZSgyMS43NSwtMS4xMzY4N0UtMTMpIj4mI3hhOwkJCTx0aXRsZT5yZWN0MTU2MDY8L3RpdGxlPiYjeGE7CQkJPHBhdGggc3R5bGU9ImZpbGw6IzkyNzNCNjtzdHJva2U6IzU1NkE4QTtzdHJva2Utd2lkdGg6MS41O3N0cm9rZS1taXRlcmxpbWl0OjM7IiBkPSJNLTAuNzUsMzIuMjVjMCwxLjY2LDEuMzQsMywzLDNoMTIgICAgIGMxLjY2LDAsMy0xLjM0LDMtM3YtNmMwLTEuNjYtMS4zNC0zLTMtM2gtMTJjLTEuNjYsMC0zLDEuMzQtMywzVjMyLjI1eiIvPiYjeGE7CQk8L2c+JiN4YTsJPC9nPiYjeGE7PC9nPiYjeGE7PC9zdmc+;" parent="BtRRs1AipNndvJUo6PaD-8" vertex="1">
          <mxGeometry x="106" y="56" width="35.43" height="20" as="geometry" />
        </mxCell>
        <mxCell id="99kWtLQciDEQo7Vpjnh6-23" value="" style="shape=image;verticalLabelPosition=bottom;labelBackgroundColor=#ffffff;verticalAlign=top;aspect=fixed;imageAspect=0;image=data:image/svg+xml,PHN2ZyB4bWxuczpldj0iaHR0cDovL3d3dy53My5vcmcvMjAwMS94bWwtZXZlbnRzIiB4bWxucz0iaHR0cDovL3d3dy53My5vcmcvMjAwMC9zdmciIHhtbG5zOnhsaW5rPSJodHRwOi8vd3d3LnczLm9yZy8xOTk5L3hsaW5rIiB2ZXJzaW9uPSIxLjEiIGlkPSJMYXllcl8xIiB4PSIwcHgiIHk9IjBweCIgdmlld0JveD0iMCAwIDYyLjI1IDM0LjUiIHN0eWxlPSJlbmFibGUtYmFja2dyb3VuZDpuZXcgMCAwIDYyLjI1IDM0LjU7IiB4bWw6c3BhY2U9InByZXNlcnZlIj4mI3hhOzxnPiYjeGE7CTx0aXRsZT5QYWdlLTE8L3RpdGxlPiYjeGE7CTxnIGlkPSJncm91cDM3MDItMSIgdHJhbnNmb3JtPSJ0cmFuc2xhdGUoMS41LC0xLjUpIj4mI3hhOwkJPHRpdGxlPkFkYXB0ZXIvQ29ubmVjdG9yPC90aXRsZT4mI3hhOwkJPGcgaWQ9InNoYXBlMzcwMy0yIiB0cmFuc2Zvcm09InRyYW5zbGF0ZSgtOSwzMi4yNSkgcm90YXRlKC05MCkiPiYjeGE7CQkJPHRpdGxlPmxpbmUxNTU5ODwvdGl0bGU+JiN4YTsJCQk8cGF0aCBzdHlsZT0iZmlsbDpub25lO3N0cm9rZTojNTU2QThBO3N0cm9rZS13aWR0aDoxLjU7c3Ryb2tlLW1pdGVybGltaXQ6MzsiIGQ9Ik0xLjUsMzZoMjkuMjUiLz4mI3hhOwkJPC9nPiYjeGE7CQk8ZyBpZD0ic2hhcGUzNzA0LTUiIHRyYW5zZm9ybT0idHJhbnNsYXRlKDcwLjUsMykgcm90YXRlKDkwKSI+JiN4YTsJCQk8dGl0bGU+bGluZTE1NjAwPC90aXRsZT4mI3hhOwkJCTxwYXRoIHN0eWxlPSJmaWxsOm5vbmU7c3Ryb2tlOiM1NTZBOEE7c3Ryb2tlLXdpZHRoOjEuNTtzdHJva2UtbWl0ZXJsaW1pdDozOyIgZD0iTS0xLjUsMzcuNWgyNyIvPiYjeGE7CQk8L2c+JiN4YTsJCTxnIGlkPSJzaGFwZTM3MDUtOCIgdHJhbnNmb3JtPSJ0cmFuc2xhdGUoNjEuNSw2NC41KSByb3RhdGUoMTgwKSI+JiN4YTsJCQk8dGl0bGU+bGluZTE1NjAyPC90aXRsZT4mI3hhOwkJCTxwYXRoIHN0eWxlPSJmaWxsOm5vbmU7c3Ryb2tlOiM1NTZBOEE7c3Ryb2tlLXdpZHRoOjEuNTtzdHJva2UtbWl0ZXJsaW1pdDozOyIgZD0iTTAuNzUsMzguMjVoNjEuNSIvPiYjeGE7CQk8L2c+JiN4YTsJCTxnIGlkPSJzaGFwZTM3MDYtMTEiIHRyYW5zZm9ybT0idHJhbnNsYXRlKDYxLjUsNzAuNSkgcm90YXRlKDE4MCkiPiYjeGE7CQkJPHRpdGxlPmxpbmUxNTYwNDwvdGl0bGU+JiN4YTsJCQk8cGF0aCBzdHlsZT0iZmlsbDpub25lO3N0cm9rZTojNTU2QThBO3N0cm9rZS13aWR0aDoxLjU7c3Ryb2tlLW1pdGVybGltaXQ6MzsiIGQ9Ik0wLjc1LDM4LjI1aDYxLjUiLz4mI3hhOwkJPC9nPiYjeGE7CQk8ZyBpZD0ic2hhcGUzNzA3LTE0IiB0cmFuc2Zvcm09InRyYW5zbGF0ZSgyMS43NSwtMS4xMzY4N0UtMTMpIj4mI3hhOwkJCTx0aXRsZT5yZWN0MTU2MDY8L3RpdGxlPiYjeGE7CQkJPHBhdGggc3R5bGU9ImZpbGw6IzkyNzNCNjtzdHJva2U6IzU1NkE4QTtzdHJva2Utd2lkdGg6MS41O3N0cm9rZS1taXRlcmxpbWl0OjM7IiBkPSJNLTAuNzUsMzIuMjVjMCwxLjY2LDEuMzQsMywzLDNoMTIgICAgIGMxLjY2LDAsMy0xLjM0LDMtM3YtNmMwLTEuNjYtMS4zNC0zLTMtM2gtMTJjLTEuNjYsMC0zLDEuMzQtMywzVjMyLjI1eiIvPiYjeGE7CQk8L2c+JiN4YTsJPC9nPiYjeGE7PC9nPiYjeGE7PC9zdmc+;" parent="BtRRs1AipNndvJUo6PaD-8" vertex="1">
          <mxGeometry x="106" y="106" width="35.43" height="20" as="geometry" />
        </mxCell>
        <mxCell id="BtRRs1AipNndvJUo6PaD-4" value="tuum-adapter" style="whiteSpace=wrap;html=1;fillColor=#f8cecc;strokeColor=#b85450;" parent="1" vertex="1">
          <mxGeometry x="-55" y="234" width="117" height="33" as="geometry" />
        </mxCell>
        <mxCell id="BtRRs1AipNndvJUo6PaD-20" style="edgeStyle=orthogonalEdgeStyle;rounded=0;orthogonalLoop=1;jettySize=auto;html=1;exitX=0;exitY=0.5;exitDx=0;exitDy=0;entryX=1;entryY=0.5;entryDx=0;entryDy=0;flowAnimation=1;dashed=1;" parent="1" source="BtRRs1AipNndvJUo6PaD-5" target="BtRRs1AipNndvJUo6PaD-19" edge="1">
          <mxGeometry relative="1" as="geometry" />
        </mxCell>
        <mxCell id="BVrxlMUURqbPdi6F0R62-21" value="API" style="edgeLabel;html=1;align=center;verticalAlign=middle;resizable=0;points=[];" vertex="1" connectable="0" parent="BtRRs1AipNndvJUo6PaD-20">
          <mxGeometry x="0.359" y="1" relative="1" as="geometry">
            <mxPoint as="offset" />
          </mxGeometry>
        </mxCell>
        <mxCell id="BtRRs1AipNndvJUo6PaD-19" value="Numeral" style="whiteSpace=wrap;html=1;fillColor=#dae8fc;strokeColor=#6c8ebf;" parent="1" vertex="1">
          <mxGeometry x="-310" y="585" width="120" height="101" as="geometry" />
        </mxCell>
        <mxCell id="HeFp6EwtRoWDKLP-dGdm-16" style="edgeStyle=orthogonalEdgeStyle;rounded=0;orthogonalLoop=1;jettySize=auto;html=1;exitX=0;exitY=0.5;exitDx=0;exitDy=0;entryX=0.5;entryY=1;entryDx=0;entryDy=0;dashed=1;flowAnimation=1;dashPattern=8 8;" parent="1" source="BtRRs1AipNndvJUo6PaD-22" target="BtRRs1AipNndvJUo6PaD-27" edge="1">
          <mxGeometry relative="1" as="geometry" />
        </mxCell>
        <mxCell id="BtRRs1AipNndvJUo6PaD-22" value="otp service" style="whiteSpace=wrap;html=1;fillColor=#fff2cc;strokeColor=#d6b656;" parent="1" vertex="1">
          <mxGeometry x="506" y="-32" width="120" height="39" as="geometry" />
        </mxCell>
        <mxCell id="BtRRs1AipNndvJUo6PaD-24" value="Twilio" style="whiteSpace=wrap;html=1;fillColor=#f8cecc;strokeColor=#b85450;" parent="1" vertex="1">
          <mxGeometry x="387" y="-458" width="120" height="98" as="geometry" />
        </mxCell>
        <mxCell id="BtRRs1AipNndvJUo6PaD-25" value="" style="group" parent="1" vertex="1" connectable="0">
          <mxGeometry x="363" y="-250" width="156" height="183" as="geometry" />
        </mxCell>
        <mxCell id="BtRRs1AipNndvJUo6PaD-27" value="" style="whiteSpace=wrap;html=1;dashed=1;dashPattern=8 8;fillColor=none;strokeColor=#9673a6;" parent="BtRRs1AipNndvJUo6PaD-25" vertex="1">
          <mxGeometry x="-1" width="156" height="183" as="geometry" />
        </mxCell>
        <mxCell id="BtRRs1AipNndvJUo6PaD-26" value="Notification Adapters" style="text;html=1;align=center;verticalAlign=middle;whiteSpace=wrap;rounded=0;fontSize=9;fillColor=#D5E8D4;strokeColor=#D5E8D4;" parent="BtRRs1AipNndvJUo6PaD-25" vertex="1">
          <mxGeometry width="99" height="23" as="geometry" />
        </mxCell>
        <mxCell id="BtRRs1AipNndvJUo6PaD-28" value="twilio-adapter" style="whiteSpace=wrap;html=1;fillColor=#ffe6cc;strokeColor=#d79b00;" parent="BtRRs1AipNndvJUo6PaD-25" vertex="1">
          <mxGeometry x="8" y="34" width="110" height="38" as="geometry" />
        </mxCell>
        <mxCell id="99kWtLQciDEQo7Vpjnh6-36" value="" style="shape=image;verticalLabelPosition=bottom;labelBackgroundColor=#ffffff;verticalAlign=top;aspect=fixed;imageAspect=0;image=data:image/svg+xml,PHN2ZyB4bWxuczpldj0iaHR0cDovL3d3dy53My5vcmcvMjAwMS94bWwtZXZlbnRzIiB4bWxucz0iaHR0cDovL3d3dy53My5vcmcvMjAwMC9zdmciIHhtbG5zOnhsaW5rPSJodHRwOi8vd3d3LnczLm9yZy8xOTk5L3hsaW5rIiB2ZXJzaW9uPSIxLjEiIGlkPSJMYXllcl8xIiB4PSIwcHgiIHk9IjBweCIgdmlld0JveD0iMCAwIDYyLjI1IDM0LjUiIHN0eWxlPSJlbmFibGUtYmFja2dyb3VuZDpuZXcgMCAwIDYyLjI1IDM0LjU7IiB4bWw6c3BhY2U9InByZXNlcnZlIj4mI3hhOzxnPiYjeGE7CTx0aXRsZT5QYWdlLTE8L3RpdGxlPiYjeGE7CTxnIGlkPSJncm91cDM3MDItMSIgdHJhbnNmb3JtPSJ0cmFuc2xhdGUoMS41LC0xLjUpIj4mI3hhOwkJPHRpdGxlPkFkYXB0ZXIvQ29ubmVjdG9yPC90aXRsZT4mI3hhOwkJPGcgaWQ9InNoYXBlMzcwMy0yIiB0cmFuc2Zvcm09InRyYW5zbGF0ZSgtOSwzMi4yNSkgcm90YXRlKC05MCkiPiYjeGE7CQkJPHRpdGxlPmxpbmUxNTU5ODwvdGl0bGU+JiN4YTsJCQk8cGF0aCBzdHlsZT0iZmlsbDpub25lO3N0cm9rZTojNTU2QThBO3N0cm9rZS13aWR0aDoxLjU7c3Ryb2tlLW1pdGVybGltaXQ6MzsiIGQ9Ik0xLjUsMzZoMjkuMjUiLz4mI3hhOwkJPC9nPiYjeGE7CQk8ZyBpZD0ic2hhcGUzNzA0LTUiIHRyYW5zZm9ybT0idHJhbnNsYXRlKDcwLjUsMykgcm90YXRlKDkwKSI+JiN4YTsJCQk8dGl0bGU+bGluZTE1NjAwPC90aXRsZT4mI3hhOwkJCTxwYXRoIHN0eWxlPSJmaWxsOm5vbmU7c3Ryb2tlOiM1NTZBOEE7c3Ryb2tlLXdpZHRoOjEuNTtzdHJva2UtbWl0ZXJsaW1pdDozOyIgZD0iTS0xLjUsMzcuNWgyNyIvPiYjeGE7CQk8L2c+JiN4YTsJCTxnIGlkPSJzaGFwZTM3MDUtOCIgdHJhbnNmb3JtPSJ0cmFuc2xhdGUoNjEuNSw2NC41KSByb3RhdGUoMTgwKSI+JiN4YTsJCQk8dGl0bGU+bGluZTE1NjAyPC90aXRsZT4mI3hhOwkJCTxwYXRoIHN0eWxlPSJmaWxsOm5vbmU7c3Ryb2tlOiM1NTZBOEE7c3Ryb2tlLXdpZHRoOjEuNTtzdHJva2UtbWl0ZXJsaW1pdDozOyIgZD0iTTAuNzUsMzguMjVoNjEuNSIvPiYjeGE7CQk8L2c+JiN4YTsJCTxnIGlkPSJzaGFwZTM3MDYtMTEiIHRyYW5zZm9ybT0idHJhbnNsYXRlKDYxLjUsNzAuNSkgcm90YXRlKDE4MCkiPiYjeGE7CQkJPHRpdGxlPmxpbmUxNTYwNDwvdGl0bGU+JiN4YTsJCQk8cGF0aCBzdHlsZT0iZmlsbDpub25lO3N0cm9rZTojNTU2QThBO3N0cm9rZS13aWR0aDoxLjU7c3Ryb2tlLW1pdGVybGltaXQ6MzsiIGQ9Ik0wLjc1LDM4LjI1aDYxLjUiLz4mI3hhOwkJPC9nPiYjeGE7CQk8ZyBpZD0ic2hhcGUzNzA3LTE0IiB0cmFuc2Zvcm09InRyYW5zbGF0ZSgyMS43NSwtMS4xMzY4N0UtMTMpIj4mI3hhOwkJCTx0aXRsZT5yZWN0MTU2MDY8L3RpdGxlPiYjeGE7CQkJPHBhdGggc3R5bGU9ImZpbGw6IzkyNzNCNjtzdHJva2U6IzU1NkE4QTtzdHJva2Utd2lkdGg6MS41O3N0cm9rZS1taXRlcmxpbWl0OjM7IiBkPSJNLTAuNzUsMzIuMjVjMCwxLjY2LDEuMzQsMywzLDNoMTIgICAgIGMxLjY2LDAsMy0xLjM0LDMtM3YtNmMwLTEuNjYtMS4zNC0zLTMtM2gtMTJjLTEuNjYsMC0zLDEuMzQtMywzVjMyLjI1eiIvPiYjeGE7CQk8L2c+JiN4YTsJPC9nPiYjeGE7PC9nPiYjeGE7PC9zdmc+;" parent="BtRRs1AipNndvJUo6PaD-25" vertex="1">
          <mxGeometry x="99" y="70" width="35.43" height="20" as="geometry" />
        </mxCell>
        <mxCell id="aZxM8rf4FDybqePDUtTl-1" style="edgeStyle=orthogonalEdgeStyle;rounded=0;orthogonalLoop=1;jettySize=auto;html=1;exitX=0.75;exitY=0;exitDx=0;exitDy=0;entryX=0.25;entryY=1;entryDx=0;entryDy=0;dashed=1;flowAnimation=1;" parent="1" source="BtRRs1AipNndvJUo6PaD-27" target="BtRRs1AipNndvJUo6PaD-24" edge="1">
          <mxGeometry relative="1" as="geometry">
            <Array as="points">
              <mxPoint x="467" y="-302" />
              <mxPoint x="417" y="-302" />
            </Array>
          </mxGeometry>
        </mxCell>
        <mxCell id="BVrxlMUURqbPdi6F0R62-24" value="API" style="edgeLabel;html=1;align=center;verticalAlign=middle;resizable=0;points=[];" vertex="1" connectable="0" parent="aZxM8rf4FDybqePDUtTl-1">
          <mxGeometry x="0.2126" y="-4" relative="1" as="geometry">
            <mxPoint as="offset" />
          </mxGeometry>
        </mxCell>
        <mxCell id="HeFp6EwtRoWDKLP-dGdm-11" value="Application Gateway" style="overflow=block;blockSpacing=1;whiteSpace=wrap;image;aspect=fixed;html=1;points=[];align=center;verticalAlign=top;image=img/lib/mscae/Application_Gateway.svg;fontSize=13;spacing=0;strokeColor=#5e5e5e;strokeOpacity=100;rounded=1;absoluteArcSize=1;arcSize=9;fillColor=#7FBA00;strokeWidth=2.3;lucidId=yAqGiUUvlTo3;" parent="1" vertex="1">
          <mxGeometry x="977" y="392" width="79" height="71" as="geometry" />
        </mxCell>
        <mxCell id="HeFp6EwtRoWDKLP-dGdm-15" style="edgeStyle=orthogonalEdgeStyle;rounded=0;orthogonalLoop=1;jettySize=auto;html=1;dashed=1;flowAnimation=1;dashPattern=8 8;" parent="1" source="99kWtLQciDEQo7Vpjnh6-10" target="99kWtLQciDEQo7Vpjnh6-8" edge="1">
          <mxGeometry relative="1" as="geometry" />
        </mxCell>
        <mxCell id="HeFp6EwtRoWDKLP-dGdm-14" value="" style="edgeStyle=none;orthogonalLoop=1;jettySize=auto;html=1;rounded=0;dashed=1;flowAnimation=1;dashPattern=12 12;" parent="1" target="99kWtLQciDEQo7Vpjnh6-10" edge="1">
          <mxGeometry width="80" relative="1" as="geometry">
            <mxPoint x="977" y="428" as="sourcePoint" />
            <mxPoint x="832" y="315" as="targetPoint" />
            <Array as="points" />
          </mxGeometry>
        </mxCell>
        <mxCell id="HeFp6EwtRoWDKLP-dGdm-28" value="" style="group" parent="1" vertex="1" connectable="0">
          <mxGeometry x="388" y="752" width="156" height="183" as="geometry" />
        </mxCell>
        <mxCell id="HeFp6EwtRoWDKLP-dGdm-29" value="" style="whiteSpace=wrap;html=1;dashed=1;dashPattern=8 8;fillColor=none;strokeColor=#9673a6;" parent="HeFp6EwtRoWDKLP-dGdm-28" vertex="1">
          <mxGeometry x="-1" width="156" height="183" as="geometry" />
        </mxCell>
        <mxCell id="HeFp6EwtRoWDKLP-dGdm-30" value="KYC Adapters" style="text;html=1;align=center;verticalAlign=middle;whiteSpace=wrap;rounded=0;fontSize=9;fillColor=#D5E8D4;strokeColor=#82b366;" parent="HeFp6EwtRoWDKLP-dGdm-28" vertex="1">
          <mxGeometry width="99" height="23" as="geometry" />
        </mxCell>
        <mxCell id="HeFp6EwtRoWDKLP-dGdm-31" value="sumsub-adapter" style="whiteSpace=wrap;html=1;fillColor=#FFCE9F;strokeColor=#82b366;" parent="HeFp6EwtRoWDKLP-dGdm-28" vertex="1">
          <mxGeometry x="8" y="34" width="110" height="38" as="geometry" />
        </mxCell>
        <mxCell id="HeFp6EwtRoWDKLP-dGdm-33" value="forthline-adapter" style="whiteSpace=wrap;html=1;fillColor=#FFCE9F;strokeColor=#82b366;" parent="HeFp6EwtRoWDKLP-dGdm-28" vertex="1">
          <mxGeometry x="9" y="88" width="110" height="38" as="geometry" />
        </mxCell>
        <mxCell id="99kWtLQciDEQo7Vpjnh6-27" value="" style="shape=image;verticalLabelPosition=bottom;labelBackgroundColor=#ffffff;verticalAlign=top;aspect=fixed;imageAspect=0;image=data:image/svg+xml,PHN2ZyB4bWxuczpldj0iaHR0cDovL3d3dy53My5vcmcvMjAwMS94bWwtZXZlbnRzIiB4bWxucz0iaHR0cDovL3d3dy53My5vcmcvMjAwMC9zdmciIHhtbG5zOnhsaW5rPSJodHRwOi8vd3d3LnczLm9yZy8xOTk5L3hsaW5rIiB2ZXJzaW9uPSIxLjEiIGlkPSJMYXllcl8xIiB4PSIwcHgiIHk9IjBweCIgdmlld0JveD0iMCAwIDYyLjI1IDM0LjUiIHN0eWxlPSJlbmFibGUtYmFja2dyb3VuZDpuZXcgMCAwIDYyLjI1IDM0LjU7IiB4bWw6c3BhY2U9InByZXNlcnZlIj4mI3hhOzxnPiYjeGE7CTx0aXRsZT5QYWdlLTE8L3RpdGxlPiYjeGE7CTxnIGlkPSJncm91cDM3MDItMSIgdHJhbnNmb3JtPSJ0cmFuc2xhdGUoMS41LC0xLjUpIj4mI3hhOwkJPHRpdGxlPkFkYXB0ZXIvQ29ubmVjdG9yPC90aXRsZT4mI3hhOwkJPGcgaWQ9InNoYXBlMzcwMy0yIiB0cmFuc2Zvcm09InRyYW5zbGF0ZSgtOSwzMi4yNSkgcm90YXRlKC05MCkiPiYjeGE7CQkJPHRpdGxlPmxpbmUxNTU5ODwvdGl0bGU+JiN4YTsJCQk8cGF0aCBzdHlsZT0iZmlsbDpub25lO3N0cm9rZTojNTU2QThBO3N0cm9rZS13aWR0aDoxLjU7c3Ryb2tlLW1pdGVybGltaXQ6MzsiIGQ9Ik0xLjUsMzZoMjkuMjUiLz4mI3hhOwkJPC9nPiYjeGE7CQk8ZyBpZD0ic2hhcGUzNzA0LTUiIHRyYW5zZm9ybT0idHJhbnNsYXRlKDcwLjUsMykgcm90YXRlKDkwKSI+JiN4YTsJCQk8dGl0bGU+bGluZTE1NjAwPC90aXRsZT4mI3hhOwkJCTxwYXRoIHN0eWxlPSJmaWxsOm5vbmU7c3Ryb2tlOiM1NTZBOEE7c3Ryb2tlLXdpZHRoOjEuNTtzdHJva2UtbWl0ZXJsaW1pdDozOyIgZD0iTS0xLjUsMzcuNWgyNyIvPiYjeGE7CQk8L2c+JiN4YTsJCTxnIGlkPSJzaGFwZTM3MDUtOCIgdHJhbnNmb3JtPSJ0cmFuc2xhdGUoNjEuNSw2NC41KSByb3RhdGUoMTgwKSI+JiN4YTsJCQk8dGl0bGU+bGluZTE1NjAyPC90aXRsZT4mI3hhOwkJCTxwYXRoIHN0eWxlPSJmaWxsOm5vbmU7c3Ryb2tlOiM1NTZBOEE7c3Ryb2tlLXdpZHRoOjEuNTtzdHJva2UtbWl0ZXJsaW1pdDozOyIgZD0iTTAuNzUsMzguMjVoNjEuNSIvPiYjeGE7CQk8L2c+JiN4YTsJCTxnIGlkPSJzaGFwZTM3MDYtMTEiIHRyYW5zZm9ybT0idHJhbnNsYXRlKDYxLjUsNzAuNSkgcm90YXRlKDE4MCkiPiYjeGE7CQkJPHRpdGxlPmxpbmUxNTYwNDwvdGl0bGU+JiN4YTsJCQk8cGF0aCBzdHlsZT0iZmlsbDpub25lO3N0cm9rZTojNTU2QThBO3N0cm9rZS13aWR0aDoxLjU7c3Ryb2tlLW1pdGVybGltaXQ6MzsiIGQ9Ik0wLjc1LDM4LjI1aDYxLjUiLz4mI3hhOwkJPC9nPiYjeGE7CQk8ZyBpZD0ic2hhcGUzNzA3LTE0IiB0cmFuc2Zvcm09InRyYW5zbGF0ZSgyMS43NSwtMS4xMzY4N0UtMTMpIj4mI3hhOwkJCTx0aXRsZT5yZWN0MTU2MDY8L3RpdGxlPiYjeGE7CQkJPHBhdGggc3R5bGU9ImZpbGw6IzkyNzNCNjtzdHJva2U6IzU1NkE4QTtzdHJva2Utd2lkdGg6MS41O3N0cm9rZS1taXRlcmxpbWl0OjM7IiBkPSJNLTAuNzUsMzIuMjVjMCwxLjY2LDEuMzQsMywzLDNoMTIgICAgIGMxLjY2LDAsMy0xLjM0LDMtM3YtNmMwLTEuNjYtMS4zNC0zLTMtM2gtMTJjLTEuNjYsMC0zLDEuMzQtMywzVjMyLjI1eiIvPiYjeGE7CQk8L2c+JiN4YTsJPC9nPiYjeGE7PC9nPiYjeGE7PC9zdmc+;" parent="HeFp6EwtRoWDKLP-dGdm-28" vertex="1">
          <mxGeometry x="99" y="63" width="35.43" height="20" as="geometry" />
        </mxCell>
        <mxCell id="99kWtLQciDEQo7Vpjnh6-35" value="" style="shape=image;verticalLabelPosition=bottom;labelBackgroundColor=#ffffff;verticalAlign=top;aspect=fixed;imageAspect=0;image=data:image/svg+xml,PHN2ZyB4bWxuczpldj0iaHR0cDovL3d3dy53My5vcmcvMjAwMS94bWwtZXZlbnRzIiB4bWxucz0iaHR0cDovL3d3dy53My5vcmcvMjAwMC9zdmciIHhtbG5zOnhsaW5rPSJodHRwOi8vd3d3LnczLm9yZy8xOTk5L3hsaW5rIiB2ZXJzaW9uPSIxLjEiIGlkPSJMYXllcl8xIiB4PSIwcHgiIHk9IjBweCIgdmlld0JveD0iMCAwIDYyLjI1IDM0LjUiIHN0eWxlPSJlbmFibGUtYmFja2dyb3VuZDpuZXcgMCAwIDYyLjI1IDM0LjU7IiB4bWw6c3BhY2U9InByZXNlcnZlIj4mI3hhOzxnPiYjeGE7CTx0aXRsZT5QYWdlLTE8L3RpdGxlPiYjeGE7CTxnIGlkPSJncm91cDM3MDItMSIgdHJhbnNmb3JtPSJ0cmFuc2xhdGUoMS41LC0xLjUpIj4mI3hhOwkJPHRpdGxlPkFkYXB0ZXIvQ29ubmVjdG9yPC90aXRsZT4mI3hhOwkJPGcgaWQ9InNoYXBlMzcwMy0yIiB0cmFuc2Zvcm09InRyYW5zbGF0ZSgtOSwzMi4yNSkgcm90YXRlKC05MCkiPiYjeGE7CQkJPHRpdGxlPmxpbmUxNTU5ODwvdGl0bGU+JiN4YTsJCQk8cGF0aCBzdHlsZT0iZmlsbDpub25lO3N0cm9rZTojNTU2QThBO3N0cm9rZS13aWR0aDoxLjU7c3Ryb2tlLW1pdGVybGltaXQ6MzsiIGQ9Ik0xLjUsMzZoMjkuMjUiLz4mI3hhOwkJPC9nPiYjeGE7CQk8ZyBpZD0ic2hhcGUzNzA0LTUiIHRyYW5zZm9ybT0idHJhbnNsYXRlKDcwLjUsMykgcm90YXRlKDkwKSI+JiN4YTsJCQk8dGl0bGU+bGluZTE1NjAwPC90aXRsZT4mI3hhOwkJCTxwYXRoIHN0eWxlPSJmaWxsOm5vbmU7c3Ryb2tlOiM1NTZBOEE7c3Ryb2tlLXdpZHRoOjEuNTtzdHJva2UtbWl0ZXJsaW1pdDozOyIgZD0iTS0xLjUsMzcuNWgyNyIvPiYjeGE7CQk8L2c+JiN4YTsJCTxnIGlkPSJzaGFwZTM3MDUtOCIgdHJhbnNmb3JtPSJ0cmFuc2xhdGUoNjEuNSw2NC41KSByb3RhdGUoMTgwKSI+JiN4YTsJCQk8dGl0bGU+bGluZTE1NjAyPC90aXRsZT4mI3hhOwkJCTxwYXRoIHN0eWxlPSJmaWxsOm5vbmU7c3Ryb2tlOiM1NTZBOEE7c3Ryb2tlLXdpZHRoOjEuNTtzdHJva2UtbWl0ZXJsaW1pdDozOyIgZD0iTTAuNzUsMzguMjVoNjEuNSIvPiYjeGE7CQk8L2c+JiN4YTsJCTxnIGlkPSJzaGFwZTM3MDYtMTEiIHRyYW5zZm9ybT0idHJhbnNsYXRlKDYxLjUsNzAuNSkgcm90YXRlKDE4MCkiPiYjeGE7CQkJPHRpdGxlPmxpbmUxNTYwNDwvdGl0bGU+JiN4YTsJCQk8cGF0aCBzdHlsZT0iZmlsbDpub25lO3N0cm9rZTojNTU2QThBO3N0cm9rZS13aWR0aDoxLjU7c3Ryb2tlLW1pdGVybGltaXQ6MzsiIGQ9Ik0wLjc1LDM4LjI1aDYxLjUiLz4mI3hhOwkJPC9nPiYjeGE7CQk8ZyBpZD0ic2hhcGUzNzA3LTE0IiB0cmFuc2Zvcm09InRyYW5zbGF0ZSgyMS43NSwtMS4xMzY4N0UtMTMpIj4mI3hhOwkJCTx0aXRsZT5yZWN0MTU2MDY8L3RpdGxlPiYjeGE7CQkJPHBhdGggc3R5bGU9ImZpbGw6IzkyNzNCNjtzdHJva2U6IzU1NkE4QTtzdHJva2Utd2lkdGg6MS41O3N0cm9rZS1taXRlcmxpbWl0OjM7IiBkPSJNLTAuNzUsMzIuMjVjMCwxLjY2LDEuMzQsMywzLDNoMTIgICAgIGMxLjY2LDAsMy0xLjM0LDMtM3YtNmMwLTEuNjYtMS4zNC0zLTMtM2gtMTJjLTEuNjYsMC0zLDEuMzQtMywzVjMyLjI1eiIvPiYjeGE7CQk8L2c+JiN4YTsJPC9nPiYjeGE7PC9nPiYjeGE7PC9zdmc+;" parent="HeFp6EwtRoWDKLP-dGdm-28" vertex="1">
          <mxGeometry x="99" y="118" width="35.43" height="20" as="geometry" />
        </mxCell>
        <mxCell id="HeFp6EwtRoWDKLP-dGdm-35" style="edgeStyle=orthogonalEdgeStyle;rounded=0;orthogonalLoop=1;jettySize=auto;html=1;exitX=1;exitY=0.5;exitDx=0;exitDy=0;dashed=1;flowAnimation=1;entryX=1;entryY=0.5;entryDx=0;entryDy=0;" parent="1" source="HeFp6EwtRoWDKLP-dGdm-39" target="HeFp6EwtRoWDKLP-dGdm-29" edge="1">
          <mxGeometry relative="1" as="geometry">
            <mxPoint x="659" y="650" as="targetPoint" />
          </mxGeometry>
        </mxCell>
        <mxCell id="HeFp6EwtRoWDKLP-dGdm-36" value="webhook" style="edgeLabel;html=1;align=center;verticalAlign=middle;resizable=0;points=[];" parent="HeFp6EwtRoWDKLP-dGdm-35" vertex="1" connectable="0">
          <mxGeometry x="-0.0481" y="-1" relative="1" as="geometry">
            <mxPoint y="-16" as="offset" />
          </mxGeometry>
        </mxCell>
        <mxCell id="HeFp6EwtRoWDKLP-dGdm-38" value="Sumsub" style="whiteSpace=wrap;html=1;fillColor=#FFCE9F;strokeColor=#9673a6;" parent="1" vertex="1">
          <mxGeometry x="340" y="1052" width="120" height="101" as="geometry" />
        </mxCell>
        <mxCell id="HeFp6EwtRoWDKLP-dGdm-39" value="Forthline" style="whiteSpace=wrap;html=1;fillColor=#FFCE9F;strokeColor=#9673a6;" parent="1" vertex="1">
          <mxGeometry x="478" y="1052" width="120" height="101" as="geometry" />
        </mxCell>
        <mxCell id="HeFp6EwtRoWDKLP-dGdm-40" value="API" style="edgeStyle=orthogonalEdgeStyle;rounded=0;orthogonalLoop=1;jettySize=auto;html=1;exitX=0.25;exitY=1;exitDx=0;exitDy=0;entryX=0.5;entryY=0;entryDx=0;entryDy=0;dashed=1;flowAnimation=1;" parent="1" source="HeFp6EwtRoWDKLP-dGdm-29" target="HeFp6EwtRoWDKLP-dGdm-38" edge="1">
          <mxGeometry relative="1" as="geometry" />
        </mxCell>
        <mxCell id="HeFp6EwtRoWDKLP-dGdm-41" style="edgeStyle=orthogonalEdgeStyle;rounded=0;orthogonalLoop=1;jettySize=auto;html=1;exitX=0.75;exitY=1;exitDx=0;exitDy=0;dashed=1;flowAnimation=1;" parent="1" source="HeFp6EwtRoWDKLP-dGdm-29" target="HeFp6EwtRoWDKLP-dGdm-39" edge="1">
          <mxGeometry relative="1" as="geometry" />
        </mxCell>
        <mxCell id="BVrxlMUURqbPdi6F0R62-19" value="API" style="edgeLabel;html=1;align=center;verticalAlign=middle;resizable=0;points=[];" vertex="1" connectable="0" parent="HeFp6EwtRoWDKLP-dGdm-41">
          <mxGeometry x="0.1145" y="-2" relative="1" as="geometry">
            <mxPoint as="offset" />
          </mxGeometry>
        </mxCell>
        <mxCell id="HeFp6EwtRoWDKLP-dGdm-43" value="&lt;b&gt;Client Channel &lt;/b&gt;&lt;br&gt;( Mobile &amp;amp; Web)" style="html=1;overflow=block;blockSpacing=1;whiteSpace=wrap;fontSize=16.7;fontColor=#333333;spacing=3.8;strokeOpacity=0;fillOpacity=0;rounded=1;absoluteArcSize=1;arcSize=9;fillColor=#ffffff;strokeWidth=2.3;lucidId=yAqG6X8Uf8wj;" parent="1" vertex="1">
          <mxGeometry x="1214" y="470" width="215" height="48" as="geometry" />
        </mxCell>
        <mxCell id="HeFp6EwtRoWDKLP-dGdm-44" value="translation service" style="whiteSpace=wrap;html=1;fillColor=#fff2cc;strokeColor=#d6b656;" parent="1" vertex="1">
          <mxGeometry x="800" y="86" width="120" height="39" as="geometry" />
        </mxCell>
        <mxCell id="HeFp6EwtRoWDKLP-dGdm-46" value="" style="group" parent="1" vertex="1" connectable="0">
          <mxGeometry x="-69" y="506" width="156" height="183" as="geometry" />
        </mxCell>
        <mxCell id="BtRRs1AipNndvJUo6PaD-5" value="" style="whiteSpace=wrap;html=1;dashed=1;dashPattern=8 8;fillColor=none;strokeColor=#9673a6;" parent="HeFp6EwtRoWDKLP-dGdm-46" vertex="1">
          <mxGeometry width="156" height="183" as="geometry" />
        </mxCell>
        <mxCell id="BtRRs1AipNndvJUo6PaD-15" value="Payment Adapters" style="text;html=1;align=center;verticalAlign=middle;whiteSpace=wrap;rounded=0;fontSize=9;fillColor=#D5E8D4;strokeColor=#9673a6;" parent="HeFp6EwtRoWDKLP-dGdm-46" vertex="1">
          <mxGeometry x="1" width="87" height="23" as="geometry" />
        </mxCell>
        <mxCell id="o0oqG4mP_P4ncCSwfBv9-18" value="numeral-adapter" style="whiteSpace=wrap;html=1;fillColor=#dae8fc;strokeColor=#6c8ebf;" parent="HeFp6EwtRoWDKLP-dGdm-46" vertex="1">
          <mxGeometry x="7" y="37" width="116" height="37" as="geometry" />
        </mxCell>
        <mxCell id="99kWtLQciDEQo7Vpjnh6-25" value="" style="shape=image;verticalLabelPosition=bottom;labelBackgroundColor=#ffffff;verticalAlign=top;aspect=fixed;imageAspect=0;image=data:image/svg+xml,PHN2ZyB4bWxuczpldj0iaHR0cDovL3d3dy53My5vcmcvMjAwMS94bWwtZXZlbnRzIiB4bWxucz0iaHR0cDovL3d3dy53My5vcmcvMjAwMC9zdmciIHhtbG5zOnhsaW5rPSJodHRwOi8vd3d3LnczLm9yZy8xOTk5L3hsaW5rIiB2ZXJzaW9uPSIxLjEiIGlkPSJMYXllcl8xIiB4PSIwcHgiIHk9IjBweCIgdmlld0JveD0iMCAwIDYyLjI1IDM0LjUiIHN0eWxlPSJlbmFibGUtYmFja2dyb3VuZDpuZXcgMCAwIDYyLjI1IDM0LjU7IiB4bWw6c3BhY2U9InByZXNlcnZlIj4mI3hhOzxnPiYjeGE7CTx0aXRsZT5QYWdlLTE8L3RpdGxlPiYjeGE7CTxnIGlkPSJncm91cDM3MDItMSIgdHJhbnNmb3JtPSJ0cmFuc2xhdGUoMS41LC0xLjUpIj4mI3hhOwkJPHRpdGxlPkFkYXB0ZXIvQ29ubmVjdG9yPC90aXRsZT4mI3hhOwkJPGcgaWQ9InNoYXBlMzcwMy0yIiB0cmFuc2Zvcm09InRyYW5zbGF0ZSgtOSwzMi4yNSkgcm90YXRlKC05MCkiPiYjeGE7CQkJPHRpdGxlPmxpbmUxNTU5ODwvdGl0bGU+JiN4YTsJCQk8cGF0aCBzdHlsZT0iZmlsbDpub25lO3N0cm9rZTojNTU2QThBO3N0cm9rZS13aWR0aDoxLjU7c3Ryb2tlLW1pdGVybGltaXQ6MzsiIGQ9Ik0xLjUsMzZoMjkuMjUiLz4mI3hhOwkJPC9nPiYjeGE7CQk8ZyBpZD0ic2hhcGUzNzA0LTUiIHRyYW5zZm9ybT0idHJhbnNsYXRlKDcwLjUsMykgcm90YXRlKDkwKSI+JiN4YTsJCQk8dGl0bGU+bGluZTE1NjAwPC90aXRsZT4mI3hhOwkJCTxwYXRoIHN0eWxlPSJmaWxsOm5vbmU7c3Ryb2tlOiM1NTZBOEE7c3Ryb2tlLXdpZHRoOjEuNTtzdHJva2UtbWl0ZXJsaW1pdDozOyIgZD0iTS0xLjUsMzcuNWgyNyIvPiYjeGE7CQk8L2c+JiN4YTsJCTxnIGlkPSJzaGFwZTM3MDUtOCIgdHJhbnNmb3JtPSJ0cmFuc2xhdGUoNjEuNSw2NC41KSByb3RhdGUoMTgwKSI+JiN4YTsJCQk8dGl0bGU+bGluZTE1NjAyPC90aXRsZT4mI3hhOwkJCTxwYXRoIHN0eWxlPSJmaWxsOm5vbmU7c3Ryb2tlOiM1NTZBOEE7c3Ryb2tlLXdpZHRoOjEuNTtzdHJva2UtbWl0ZXJsaW1pdDozOyIgZD0iTTAuNzUsMzguMjVoNjEuNSIvPiYjeGE7CQk8L2c+JiN4YTsJCTxnIGlkPSJzaGFwZTM3MDYtMTEiIHRyYW5zZm9ybT0idHJhbnNsYXRlKDYxLjUsNzAuNSkgcm90YXRlKDE4MCkiPiYjeGE7CQkJPHRpdGxlPmxpbmUxNTYwNDwvdGl0bGU+JiN4YTsJCQk8cGF0aCBzdHlsZT0iZmlsbDpub25lO3N0cm9rZTojNTU2QThBO3N0cm9rZS13aWR0aDoxLjU7c3Ryb2tlLW1pdGVybGltaXQ6MzsiIGQ9Ik0wLjc1LDM4LjI1aDYxLjUiLz4mI3hhOwkJPC9nPiYjeGE7CQk8ZyBpZD0ic2hhcGUzNzA3LTE0IiB0cmFuc2Zvcm09InRyYW5zbGF0ZSgyMS43NSwtMS4xMzY4N0UtMTMpIj4mI3hhOwkJCTx0aXRsZT5yZWN0MTU2MDY8L3RpdGxlPiYjeGE7CQkJPHBhdGggc3R5bGU9ImZpbGw6IzkyNzNCNjtzdHJva2U6IzU1NkE4QTtzdHJva2Utd2lkdGg6MS41O3N0cm9rZS1taXRlcmxpbWl0OjM7IiBkPSJNLTAuNzUsMzIuMjVjMCwxLjY2LDEuMzQsMywzLDNoMTIgICAgIGMxLjY2LDAsMy0xLjM0LDMtM3YtNmMwLTEuNjYtMS4zNC0zLTMtM2gtMTJjLTEuNjYsMC0zLDEuMzQtMywzVjMyLjI1eiIvPiYjeGE7CQk8L2c+JiN4YTsJPC9nPiYjeGE7PC9nPiYjeGE7PC9zdmc+;" parent="HeFp6EwtRoWDKLP-dGdm-46" vertex="1">
          <mxGeometry x="99" y="64" width="35.43" height="20" as="geometry" />
        </mxCell>
        <mxCell id="aZxM8rf4FDybqePDUtTl-8" value="PRIVATE&amp;nbsp; / PUBLIC CLOUD CONTAINER" style="text;html=1;align=center;verticalAlign=middle;whiteSpace=wrap;rounded=0;fontSize=15;fontFamily=Verdana;fontStyle=1" parent="1" vertex="1">
          <mxGeometry x="-69" y="-280" width="229" height="40" as="geometry" />
        </mxCell>
        <mxCell id="HeFp6EwtRoWDKLP-dGdm-56" value="Marqeta" style="whiteSpace=wrap;html=1;fillColor=#fff2cc;strokeColor=#d6b656;" parent="1" vertex="1">
          <mxGeometry x="-308" y="849" width="120" height="101" as="geometry" />
        </mxCell>
        <mxCell id="HeFp6EwtRoWDKLP-dGdm-60" style="edgeStyle=orthogonalEdgeStyle;rounded=0;orthogonalLoop=1;jettySize=auto;html=1;exitX=0;exitY=0.5;exitDx=0;exitDy=0;entryX=1;entryY=0.5;entryDx=0;entryDy=0;flowAnimation=1;dashed=1;" parent="1" source="HeFp6EwtRoWDKLP-dGdm-57" target="HeFp6EwtRoWDKLP-dGdm-56" edge="1">
          <mxGeometry relative="1" as="geometry" />
        </mxCell>
        <mxCell id="BVrxlMUURqbPdi6F0R62-20" value="API" style="edgeLabel;html=1;align=center;verticalAlign=middle;resizable=0;points=[];" vertex="1" connectable="0" parent="HeFp6EwtRoWDKLP-dGdm-60">
          <mxGeometry x="0.4555" y="3" relative="1" as="geometry">
            <mxPoint as="offset" />
          </mxGeometry>
        </mxCell>
        <mxCell id="HeFp6EwtRoWDKLP-dGdm-57" value="" style="whiteSpace=wrap;html=1;dashed=1;dashPattern=8 8;fillColor=none;strokeColor=#9673a6;" parent="1" vertex="1">
          <mxGeometry x="-67" y="770" width="156" height="183" as="geometry" />
        </mxCell>
        <mxCell id="HeFp6EwtRoWDKLP-dGdm-58" value="Card Adapters" style="text;html=1;align=center;verticalAlign=middle;whiteSpace=wrap;rounded=0;fontSize=9;fillColor=#D5E8D4;strokeColor=#9673a6;" parent="1" vertex="1">
          <mxGeometry x="-67" y="770" width="87" height="23" as="geometry" />
        </mxCell>
        <mxCell id="HeFp6EwtRoWDKLP-dGdm-59" value="marqeta-adapter" style="whiteSpace=wrap;html=1;fillColor=#fff2cc;strokeColor=#d6b656;" parent="1" vertex="1">
          <mxGeometry x="-60" y="812" width="116" height="37" as="geometry" />
        </mxCell>
        <mxCell id="HeFp6EwtRoWDKLP-dGdm-61" value="" style="outlineConnect=0;dashed=0;verticalLabelPosition=bottom;verticalAlign=top;align=center;html=1;shape=mxgraph.aws3.workspaces;fillColor=#D16A28;gradientColor=#F58435;gradientDirection=north;" parent="1" vertex="1">
          <mxGeometry x="1275" y="368.5" width="82.5" height="94.5" as="geometry" />
        </mxCell>
        <mxCell id="99kWtLQciDEQo7Vpjnh6-3" value="" style="sketch=0;outlineConnect=0;fontColor=#232F3E;gradientColor=none;fillColor=#232F3D;strokeColor=none;dashed=0;verticalLabelPosition=bottom;verticalAlign=top;align=center;html=1;fontSize=12;fontStyle=0;aspect=fixed;pointerEvents=1;shape=mxgraph.aws4.servers;" parent="1" vertex="1">
          <mxGeometry x="-28" y="-230" width="28.5" height="28.5" as="geometry" />
        </mxCell>
        <mxCell id="99kWtLQciDEQo7Vpjnh6-4" value="" style="image;aspect=fixed;perimeter=ellipsePerimeter;html=1;align=center;shadow=0;dashed=0;spacingTop=3;image=img/lib/active_directory/internet_cloud.svg;" parent="1" vertex="1">
          <mxGeometry x="30.25" y="-225.75" width="31.75" height="20" as="geometry" />
        </mxCell>
        <mxCell id="99kWtLQciDEQo7Vpjnh6-7" value="&lt;font style=&quot;font-size: 17px;&quot;&gt;&lt;b&gt;/&lt;/b&gt;&lt;/font&gt;" style="text;html=1;align=center;verticalAlign=middle;whiteSpace=wrap;rounded=0;" parent="1" vertex="1">
          <mxGeometry x="-10" y="-230" width="60" height="30" as="geometry" />
        </mxCell>
        <mxCell id="99kWtLQciDEQo7Vpjnh6-8" value="" style="image;aspect=fixed;html=1;points=[];align=center;fontSize=12;image=img/lib/azure2/other/API_Proxy.svg;" parent="1" vertex="1">
          <mxGeometry x="631" y="411" width="68" height="38" as="geometry" />
        </mxCell>
        <mxCell id="99kWtLQciDEQo7Vpjnh6-9" value="ingress" style="text;html=1;align=center;verticalAlign=middle;whiteSpace=wrap;rounded=0;" parent="1" vertex="1">
          <mxGeometry x="639" y="463" width="60" height="30" as="geometry" />
        </mxCell>
        <mxCell id="99kWtLQciDEQo7Vpjnh6-10" value="" style="image;aspect=fixed;html=1;points=[];align=center;fontSize=12;image=img/lib/azure2/app_services/API_Management_Services.svg;" parent="1" vertex="1">
          <mxGeometry x="800" y="399" width="65" height="60" as="geometry" />
        </mxCell>
        <mxCell id="99kWtLQciDEQo7Vpjnh6-11" value="API Management" style="text;html=1;align=center;verticalAlign=middle;whiteSpace=wrap;rounded=0;" parent="1" vertex="1">
          <mxGeometry x="792.5" y="479" width="77.5" height="31" as="geometry" />
        </mxCell>
        <mxCell id="99kWtLQciDEQo7Vpjnh6-15" value="" style="aspect=fixed;sketch=0;html=1;dashed=0;whitespace=wrap;verticalLabelPosition=bottom;verticalAlign=top;fillColor=#2875E2;strokeColor=#ffffff;points=[[0.005,0.63,0],[0.1,0.2,0],[0.9,0.2,0],[0.5,0,0],[0.995,0.63,0],[0.72,0.99,0],[0.5,1,0],[0.28,0.99,0]];shape=mxgraph.kubernetes.icon2;kubernetesLabel=1;prIcon=api" parent="1" vertex="1">
          <mxGeometry x="663.42" y="626.5" width="39.58" height="38" as="geometry" />
        </mxCell>
        <mxCell id="99kWtLQciDEQo7Vpjnh6-16" value="" style="aspect=fixed;sketch=0;html=1;dashed=0;whitespace=wrap;verticalLabelPosition=bottom;verticalAlign=top;fillColor=#2875E2;strokeColor=#ffffff;points=[[0.005,0.63,0],[0.1,0.2,0],[0.9,0.2,0],[0.5,0,0],[0.995,0.63,0],[0.72,0.99,0],[0.5,1,0],[0.28,0.99,0]];shape=mxgraph.kubernetes.icon2;kubernetesLabel=1;prIcon=api" parent="1" vertex="1">
          <mxGeometry x="599.42" y="270.5" width="39.58" height="38" as="geometry" />
        </mxCell>
        <mxCell id="99kWtLQciDEQo7Vpjnh6-17" value="" style="aspect=fixed;sketch=0;html=1;dashed=0;whitespace=wrap;verticalLabelPosition=bottom;verticalAlign=top;fillColor=#2875E2;strokeColor=#ffffff;points=[[0.005,0.63,0],[0.1,0.2,0],[0.9,0.2,0],[0.5,0,0],[0.995,0.63,0],[0.72,0.99,0],[0.5,1,0],[0.28,0.99,0]];shape=mxgraph.kubernetes.icon2;kubernetesLabel=1;prIcon=api" parent="1" vertex="1">
          <mxGeometry x="900" y="110" width="39.58" height="38" as="geometry" />
        </mxCell>
        <mxCell id="99kWtLQciDEQo7Vpjnh6-18" value="" style="aspect=fixed;sketch=0;html=1;dashed=0;whitespace=wrap;verticalLabelPosition=bottom;verticalAlign=top;fillColor=#2875E2;strokeColor=#ffffff;points=[[0.005,0.63,0],[0.1,0.2,0],[0.9,0.2,0],[0.5,0,0],[0.995,0.63,0],[0.72,0.99,0],[0.5,1,0],[0.28,0.99,0]];shape=mxgraph.kubernetes.icon2;kubernetesLabel=1;prIcon=api" parent="1" vertex="1">
          <mxGeometry x="609.21" y="-12" width="39.58" height="38" as="geometry" />
        </mxCell>
        <mxCell id="99kWtLQciDEQo7Vpjnh6-19" value="" style="aspect=fixed;sketch=0;html=1;dashed=0;whitespace=wrap;verticalLabelPosition=bottom;verticalAlign=top;fillColor=#2875E2;strokeColor=#ffffff;points=[[0.005,0.63,0],[0.1,0.2,0],[0.9,0.2,0],[0.5,0,0],[0.995,0.63,0],[0.72,0.99,0],[0.5,1,0],[0.28,0.99,0]];shape=mxgraph.kubernetes.icon2;kubernetesLabel=1;prIcon=api" parent="1" vertex="1">
          <mxGeometry x="280.00000000000006" y="62" width="39.58" height="38" as="geometry" />
        </mxCell>
        <mxCell id="99kWtLQciDEQo7Vpjnh6-20" value="" style="aspect=fixed;sketch=0;html=1;dashed=0;whitespace=wrap;verticalLabelPosition=bottom;verticalAlign=top;fillColor=#2875E2;strokeColor=#ffffff;points=[[0.005,0.63,0],[0.1,0.2,0],[0.9,0.2,0],[0.5,0,0],[0.995,0.63,0],[0.72,0.99,0],[0.5,1,0],[0.28,0.99,0]];shape=mxgraph.kubernetes.icon2;kubernetesLabel=1;prIcon=api" parent="1" vertex="1">
          <mxGeometry x="260.00000000000006" y="302" width="39.58" height="38" as="geometry" />
        </mxCell>
        <mxCell id="99kWtLQciDEQo7Vpjnh6-26" value="" style="shape=image;verticalLabelPosition=bottom;labelBackgroundColor=#ffffff;verticalAlign=top;aspect=fixed;imageAspect=0;image=data:image/svg+xml,PHN2ZyB4bWxuczpldj0iaHR0cDovL3d3dy53My5vcmcvMjAwMS94bWwtZXZlbnRzIiB4bWxucz0iaHR0cDovL3d3dy53My5vcmcvMjAwMC9zdmciIHhtbG5zOnhsaW5rPSJodHRwOi8vd3d3LnczLm9yZy8xOTk5L3hsaW5rIiB2ZXJzaW9uPSIxLjEiIGlkPSJMYXllcl8xIiB4PSIwcHgiIHk9IjBweCIgdmlld0JveD0iMCAwIDYyLjI1IDM0LjUiIHN0eWxlPSJlbmFibGUtYmFja2dyb3VuZDpuZXcgMCAwIDYyLjI1IDM0LjU7IiB4bWw6c3BhY2U9InByZXNlcnZlIj4mI3hhOzxnPiYjeGE7CTx0aXRsZT5QYWdlLTE8L3RpdGxlPiYjeGE7CTxnIGlkPSJncm91cDM3MDItMSIgdHJhbnNmb3JtPSJ0cmFuc2xhdGUoMS41LC0xLjUpIj4mI3hhOwkJPHRpdGxlPkFkYXB0ZXIvQ29ubmVjdG9yPC90aXRsZT4mI3hhOwkJPGcgaWQ9InNoYXBlMzcwMy0yIiB0cmFuc2Zvcm09InRyYW5zbGF0ZSgtOSwzMi4yNSkgcm90YXRlKC05MCkiPiYjeGE7CQkJPHRpdGxlPmxpbmUxNTU5ODwvdGl0bGU+JiN4YTsJCQk8cGF0aCBzdHlsZT0iZmlsbDpub25lO3N0cm9rZTojNTU2QThBO3N0cm9rZS13aWR0aDoxLjU7c3Ryb2tlLW1pdGVybGltaXQ6MzsiIGQ9Ik0xLjUsMzZoMjkuMjUiLz4mI3hhOwkJPC9nPiYjeGE7CQk8ZyBpZD0ic2hhcGUzNzA0LTUiIHRyYW5zZm9ybT0idHJhbnNsYXRlKDcwLjUsMykgcm90YXRlKDkwKSI+JiN4YTsJCQk8dGl0bGU+bGluZTE1NjAwPC90aXRsZT4mI3hhOwkJCTxwYXRoIHN0eWxlPSJmaWxsOm5vbmU7c3Ryb2tlOiM1NTZBOEE7c3Ryb2tlLXdpZHRoOjEuNTtzdHJva2UtbWl0ZXJsaW1pdDozOyIgZD0iTS0xLjUsMzcuNWgyNyIvPiYjeGE7CQk8L2c+JiN4YTsJCTxnIGlkPSJzaGFwZTM3MDUtOCIgdHJhbnNmb3JtPSJ0cmFuc2xhdGUoNjEuNSw2NC41KSByb3RhdGUoMTgwKSI+JiN4YTsJCQk8dGl0bGU+bGluZTE1NjAyPC90aXRsZT4mI3hhOwkJCTxwYXRoIHN0eWxlPSJmaWxsOm5vbmU7c3Ryb2tlOiM1NTZBOEE7c3Ryb2tlLXdpZHRoOjEuNTtzdHJva2UtbWl0ZXJsaW1pdDozOyIgZD0iTTAuNzUsMzguMjVoNjEuNSIvPiYjeGE7CQk8L2c+JiN4YTsJCTxnIGlkPSJzaGFwZTM3MDYtMTEiIHRyYW5zZm9ybT0idHJhbnNsYXRlKDYxLjUsNzAuNSkgcm90YXRlKDE4MCkiPiYjeGE7CQkJPHRpdGxlPmxpbmUxNTYwNDwvdGl0bGU+JiN4YTsJCQk8cGF0aCBzdHlsZT0iZmlsbDpub25lO3N0cm9rZTojNTU2QThBO3N0cm9rZS13aWR0aDoxLjU7c3Ryb2tlLW1pdGVybGltaXQ6MzsiIGQ9Ik0wLjc1LDM4LjI1aDYxLjUiLz4mI3hhOwkJPC9nPiYjeGE7CQk8ZyBpZD0ic2hhcGUzNzA3LTE0IiB0cmFuc2Zvcm09InRyYW5zbGF0ZSgyMS43NSwtMS4xMzY4N0UtMTMpIj4mI3hhOwkJCTx0aXRsZT5yZWN0MTU2MDY8L3RpdGxlPiYjeGE7CQkJPHBhdGggc3R5bGU9ImZpbGw6IzkyNzNCNjtzdHJva2U6IzU1NkE4QTtzdHJva2Utd2lkdGg6MS41O3N0cm9rZS1taXRlcmxpbWl0OjM7IiBkPSJNLTAuNzUsMzIuMjVjMCwxLjY2LDEuMzQsMywzLDNoMTIgICAgIGMxLjY2LDAsMy0xLjM0LDMtM3YtNmMwLTEuNjYtMS4zNC0zLTMtM2gtMTJjLTEuNjYsMC0zLDEuMzQtMywzVjMyLjI1eiIvPiYjeGE7CQk8L2c+JiN4YTsJPC9nPiYjeGE7PC9nPiYjeGE7PC9zdmc+;" parent="1" vertex="1">
          <mxGeometry x="30.25" y="840" width="35.43" height="20" as="geometry" />
        </mxCell>
        <mxCell id="99kWtLQciDEQo7Vpjnh6-38" value="" style="image;aspect=fixed;perimeter=ellipsePerimeter;html=1;align=center;shadow=0;dashed=0;fontColor=#4277BB;labelBackgroundColor=default;fontSize=12;spacingTop=3;image=img/lib/ibm/blockchain/membership_services_provider_api.svg;" parent="1" vertex="1">
          <mxGeometry x="-220" y="935" width="35" height="35" as="geometry" />
        </mxCell>
        <mxCell id="99kWtLQciDEQo7Vpjnh6-39" value="" style="image;aspect=fixed;perimeter=ellipsePerimeter;html=1;align=center;shadow=0;dashed=0;fontColor=#4277BB;labelBackgroundColor=default;fontSize=12;spacingTop=3;image=img/lib/ibm/blockchain/membership_services_provider_api.svg;" parent="1" vertex="1">
          <mxGeometry x="-220" y="664.5" width="35" height="35" as="geometry" />
        </mxCell>
        <mxCell id="99kWtLQciDEQo7Vpjnh6-40" value="" style="image;aspect=fixed;perimeter=ellipsePerimeter;html=1;align=center;shadow=0;dashed=0;fontColor=#4277BB;labelBackgroundColor=default;fontSize=12;spacingTop=3;image=img/lib/ibm/blockchain/membership_services_provider_api.svg;" parent="1" vertex="1">
          <mxGeometry x="-210" y="324" width="35" height="35" as="geometry" />
        </mxCell>
        <mxCell id="99kWtLQciDEQo7Vpjnh6-41" value="" style="image;aspect=fixed;perimeter=ellipsePerimeter;html=1;align=center;shadow=0;dashed=0;fontColor=#4277BB;labelBackgroundColor=default;fontSize=12;spacingTop=3;image=img/lib/ibm/blockchain/membership_services_provider_api.svg;" parent="1" vertex="1">
          <mxGeometry x="-210" y="180" width="35" height="35" as="geometry" />
        </mxCell>
        <mxCell id="99kWtLQciDEQo7Vpjnh6-42" value="" style="image;aspect=fixed;perimeter=ellipsePerimeter;html=1;align=center;shadow=0;dashed=0;fontColor=#4277BB;labelBackgroundColor=default;fontSize=12;spacingTop=3;image=img/lib/ibm/blockchain/membership_services_provider_api.svg;" parent="1" vertex="1">
          <mxGeometry x="490" y="-380" width="35" height="35" as="geometry" />
        </mxCell>
        <mxCell id="99kWtLQciDEQo7Vpjnh6-43" value="" style="image;aspect=fixed;perimeter=ellipsePerimeter;html=1;align=center;shadow=0;dashed=0;fontColor=#4277BB;labelBackgroundColor=default;fontSize=12;spacingTop=3;image=img/lib/ibm/blockchain/membership_services_provider_api.svg;" parent="1" vertex="1">
          <mxGeometry x="440" y="1140" width="35" height="35" as="geometry" />
        </mxCell>
        <mxCell id="99kWtLQciDEQo7Vpjnh6-44" value="" style="image;aspect=fixed;perimeter=ellipsePerimeter;html=1;align=center;shadow=0;dashed=0;fontColor=#4277BB;labelBackgroundColor=default;fontSize=12;spacingTop=3;image=img/lib/ibm/blockchain/membership_services_provider_api.svg;" parent="1" vertex="1">
          <mxGeometry x="580" y="1140" width="35" height="35" as="geometry" />
        </mxCell>
        <mxCell id="99kWtLQciDEQo7Vpjnh6-45" value="" style="image;aspect=fixed;perimeter=ellipsePerimeter;html=1;align=center;shadow=0;dashed=0;fontColor=#4277BB;labelBackgroundColor=default;fontSize=12;spacingTop=3;image=img/lib/ibm/blockchain/membership_services_provider_api.svg;" parent="1" vertex="1">
          <mxGeometry x="1126" y="1051" width="55" height="55" as="geometry" />
        </mxCell>
        <mxCell id="99kWtLQciDEQo7Vpjnh6-46" value="Partnership / Provider" style="text;html=1;align=left;verticalAlign=middle;whiteSpace=wrap;rounded=0;fontSize=17;" parent="1" vertex="1">
          <mxGeometry x="1195" y="1075" width="170" height="30" as="geometry" />
        </mxCell>
        <mxCell id="99kWtLQciDEQo7Vpjnh6-48" value="" style="shape=image;verticalLabelPosition=bottom;labelBackgroundColor=#ffffff;verticalAlign=top;aspect=fixed;imageAspect=0;image=data:image/svg+xml,PHN2ZyB4bWxuczpldj0iaHR0cDovL3d3dy53My5vcmcvMjAwMS94bWwtZXZlbnRzIiB4bWxucz0iaHR0cDovL3d3dy53My5vcmcvMjAwMC9zdmciIHhtbG5zOnhsaW5rPSJodHRwOi8vd3d3LnczLm9yZy8xOTk5L3hsaW5rIiB2ZXJzaW9uPSIxLjEiIGlkPSJMYXllcl8xIiB4PSIwcHgiIHk9IjBweCIgdmlld0JveD0iMCAwIDYyLjI1IDM0LjUiIHN0eWxlPSJlbmFibGUtYmFja2dyb3VuZDpuZXcgMCAwIDYyLjI1IDM0LjU7IiB4bWw6c3BhY2U9InByZXNlcnZlIj4mI3hhOzxnPiYjeGE7CTx0aXRsZT5QYWdlLTE8L3RpdGxlPiYjeGE7CTxnIGlkPSJncm91cDM3MDItMSIgdHJhbnNmb3JtPSJ0cmFuc2xhdGUoMS41LC0xLjUpIj4mI3hhOwkJPHRpdGxlPkFkYXB0ZXIvQ29ubmVjdG9yPC90aXRsZT4mI3hhOwkJPGcgaWQ9InNoYXBlMzcwMy0yIiB0cmFuc2Zvcm09InRyYW5zbGF0ZSgtOSwzMi4yNSkgcm90YXRlKC05MCkiPiYjeGE7CQkJPHRpdGxlPmxpbmUxNTU5ODwvdGl0bGU+JiN4YTsJCQk8cGF0aCBzdHlsZT0iZmlsbDpub25lO3N0cm9rZTojNTU2QThBO3N0cm9rZS13aWR0aDoxLjU7c3Ryb2tlLW1pdGVybGltaXQ6MzsiIGQ9Ik0xLjUsMzZoMjkuMjUiLz4mI3hhOwkJPC9nPiYjeGE7CQk8ZyBpZD0ic2hhcGUzNzA0LTUiIHRyYW5zZm9ybT0idHJhbnNsYXRlKDcwLjUsMykgcm90YXRlKDkwKSI+JiN4YTsJCQk8dGl0bGU+bGluZTE1NjAwPC90aXRsZT4mI3hhOwkJCTxwYXRoIHN0eWxlPSJmaWxsOm5vbmU7c3Ryb2tlOiM1NTZBOEE7c3Ryb2tlLXdpZHRoOjEuNTtzdHJva2UtbWl0ZXJsaW1pdDozOyIgZD0iTS0xLjUsMzcuNWgyNyIvPiYjeGE7CQk8L2c+JiN4YTsJCTxnIGlkPSJzaGFwZTM3MDUtOCIgdHJhbnNmb3JtPSJ0cmFuc2xhdGUoNjEuNSw2NC41KSByb3RhdGUoMTgwKSI+JiN4YTsJCQk8dGl0bGU+bGluZTE1NjAyPC90aXRsZT4mI3hhOwkJCTxwYXRoIHN0eWxlPSJmaWxsOm5vbmU7c3Ryb2tlOiM1NTZBOEE7c3Ryb2tlLXdpZHRoOjEuNTtzdHJva2UtbWl0ZXJsaW1pdDozOyIgZD0iTTAuNzUsMzguMjVoNjEuNSIvPiYjeGE7CQk8L2c+JiN4YTsJCTxnIGlkPSJzaGFwZTM3MDYtMTEiIHRyYW5zZm9ybT0idHJhbnNsYXRlKDYxLjUsNzAuNSkgcm90YXRlKDE4MCkiPiYjeGE7CQkJPHRpdGxlPmxpbmUxNTYwNDwvdGl0bGU+JiN4YTsJCQk8cGF0aCBzdHlsZT0iZmlsbDpub25lO3N0cm9rZTojNTU2QThBO3N0cm9rZS13aWR0aDoxLjU7c3Ryb2tlLW1pdGVybGltaXQ6MzsiIGQ9Ik0wLjc1LDM4LjI1aDYxLjUiLz4mI3hhOwkJPC9nPiYjeGE7CQk8ZyBpZD0ic2hhcGUzNzA3LTE0IiB0cmFuc2Zvcm09InRyYW5zbGF0ZSgyMS43NSwtMS4xMzY4N0UtMTMpIj4mI3hhOwkJCTx0aXRsZT5yZWN0MTU2MDY8L3RpdGxlPiYjeGE7CQkJPHBhdGggc3R5bGU9ImZpbGw6IzkyNzNCNjtzdHJva2U6IzU1NkE4QTtzdHJva2Utd2lkdGg6MS41O3N0cm9rZS1taXRlcmxpbWl0OjM7IiBkPSJNLTAuNzUsMzIuMjVjMCwxLjY2LDEuMzQsMywzLDNoMTIgICAgIGMxLjY2LDAsMy0xLjM0LDMtM3YtNmMwLTEuNjYtMS4zNC0zLTMtM2gtMTJjLTEuNjYsMC0zLDEuMzQtMywzVjMyLjI1eiIvPiYjeGE7CQk8L2c+JiN4YTsJPC9nPiYjeGE7PC9nPiYjeGE7PC9zdmc+;" parent="1" vertex="1">
          <mxGeometry x="1127" y="1133" width="62" height="35" as="geometry" />
        </mxCell>
        <mxCell id="99kWtLQciDEQo7Vpjnh6-49" value="Adapter" style="text;html=1;align=left;verticalAlign=middle;whiteSpace=wrap;rounded=0;fontSize=17;" parent="1" vertex="1">
          <mxGeometry x="1201" y="1141.5" width="170" height="30" as="geometry" />
        </mxCell>
        <mxCell id="99kWtLQciDEQo7Vpjnh6-50" value="" style="aspect=fixed;sketch=0;html=1;dashed=0;whitespace=wrap;verticalLabelPosition=bottom;verticalAlign=top;fillColor=#2875E2;strokeColor=#ffffff;points=[[0.005,0.63,0],[0.1,0.2,0],[0.9,0.2,0],[0.5,0,0],[0.995,0.63,0],[0.72,0.99,0],[0.5,1,0],[0.28,0.99,0]];shape=mxgraph.kubernetes.icon2;kubernetesLabel=1;prIcon=api" parent="1" vertex="1">
          <mxGeometry x="1134.92" y="1200" width="52.08" height="50" as="geometry" />
        </mxCell>
        <mxCell id="99kWtLQciDEQo7Vpjnh6-51" value="Microservices" style="text;html=1;align=left;verticalAlign=middle;whiteSpace=wrap;rounded=0;fontSize=17;" parent="1" vertex="1">
          <mxGeometry x="1199" y="1210" width="170" height="30" as="geometry" />
        </mxCell>
        <mxCell id="BVrxlMUURqbPdi6F0R62-5" value="" style="group" vertex="1" connectable="0" parent="1">
          <mxGeometry x="-470" y="346.31" width="119" height="132.69000000000005" as="geometry" />
        </mxCell>
        <mxCell id="BVrxlMUURqbPdi6F0R62-4" value="" style="whiteSpace=wrap;html=1;fillColor=none;dashed=1;" vertex="1" parent="BVrxlMUURqbPdi6F0R62-5">
          <mxGeometry width="119" height="132.69" as="geometry" />
        </mxCell>
        <mxCell id="BVrxlMUURqbPdi6F0R62-1" value="" style="shape=image;verticalLabelPosition=bottom;labelBackgroundColor=#ffffff;verticalAlign=top;aspect=fixed;imageAspect=0;image=data:image/svg+xml,PHN2ZyB4bWxuczpjYz0iaHR0cDovL2NyZWF0aXZlY29tbW9ucy5vcmcvbnMjIiB4bWxuczpkYz0iaHR0cDovL3B1cmwub3JnL2RjL2VsZW1lbnRzLzEuMS8iIHhtbG5zOmlua3NjYXBlPSJodHRwOi8vd3d3Lmlua3NjYXBlLm9yZy9uYW1lc3BhY2VzL2lua3NjYXBlIiB4bWxuczpyZGY9Imh0dHA6Ly93d3cudzMub3JnLzE5OTkvMDIvMjItcmRmLXN5bnRheC1ucyMiIHhtbG5zOnNvZGlwb2RpPSJodHRwOi8vc29kaXBvZGkuc291cmNlZm9yZ2UubmV0L0RURC9zb2RpcG9kaS0wLmR0ZCIgeG1sbnM6c3ZnPSJodHRwOi8vd3d3LnczLm9yZy8yMDAwL3N2ZyIgeG1sbnM9Imh0dHA6Ly93d3cudzMub3JnLzIwMDAvc3ZnIiB4bWxuczp4bGluaz0iaHR0cDovL3d3dy53My5vcmcvMTk5OS94bGluayIgdmVyc2lvbj0iMS4xIiBpZD0ic3ZnODMxNDciIGlua3NjYXBlOnZlcnNpb249IjAuOTIuMyAoMjQwNTU0NiwgMjAxOC0wMy0xMSkiIHNvZGlwb2RpOmRvY25hbWU9Im9yY2hlc3RyYXRpb25fMi5zdmciIHg9IjBweCIgeT0iMHB4IiB2aWV3Qm94PSIwIDAgOTcuNzIgNzEuNTUiIHN0eWxlPSJlbmFibGUtYmFja2dyb3VuZDpuZXcgMCAwIDk3LjcyIDcxLjU1OyIgeG1sOnNwYWNlPSJwcmVzZXJ2ZSI+JiN4YTs8c29kaXBvZGk6bmFtZWR2aWV3IGJvcmRlcmNvbG9yPSIjNjY2NjY2IiBib3JkZXJvcGFjaXR5PSIxIiBmaXQtbWFyZ2luLWJvdHRvbT0iMCIgZml0LW1hcmdpbi1sZWZ0PSIwIiBmaXQtbWFyZ2luLXJpZ2h0PSIwIiBmaXQtbWFyZ2luLXRvcD0iMCIgZ3JpZHRvbGVyYW5jZT0iMTAiIGd1aWRldG9sZXJhbmNlPSIxMCIgaWQ9Im5hbWVkdmlldzgzMTQ5IiBpbmtzY2FwZTpjdXJyZW50LWxheWVyPSJzdmc4MzE0NyIgaW5rc2NhcGU6Y3g9IjY0LjYwNDgwNyIgaW5rc2NhcGU6Y3k9IjI3LjA3NTQ5MiIgaW5rc2NhcGU6cGFnZW9wYWNpdHk9IjAiIGlua3NjYXBlOnBhZ2VzaGFkb3c9IjIiIGlua3NjYXBlOndpbmRvdy1oZWlnaHQ9IjEwMTciIGlua3NjYXBlOndpbmRvdy1tYXhpbWl6ZWQ9IjEiIGlua3NjYXBlOndpbmRvdy13aWR0aD0iMTkyMCIgaW5rc2NhcGU6d2luZG93LXg9Ii04IiBpbmtzY2FwZTp3aW5kb3cteT0iLTgiIGlua3NjYXBlOnpvb209IjQuNTQ0MDE2IiBvYmplY3R0b2xlcmFuY2U9IjEwIiBwYWdlY29sb3I9IiNmZmZmZmYiIHNob3dncmlkPSJmYWxzZSI+JiN4YTsJPC9zb2RpcG9kaTpuYW1lZHZpZXc+JiN4YTs8ZyBpZD0iZzgzMTQ1IiB0cmFuc2Zvcm09InRyYW5zbGF0ZSgwLC04LjQwNzE0NjllLTUpIj4mI3hhOwk8dGl0bGUgaWQ9InRpdGxlODMwNjQiPlBhZ2UtMTwvdGl0bGU+JiN4YTsJPGcgaWQ9Imdyb3VwMjc3Ny0xIj4mI3hhOwkJPHRpdGxlIGlkPSJ0aXRsZTgzMDY2Ij5PcmNoZXN0cmF0aW9uICMyPC90aXRsZT4mI3hhOwkJPGcgaWQ9Imdyb3VwMjc3OC0yIj4mI3hhOwkJCTx0aXRsZSBpZD0idGl0bGU4MzA2OCI+QnVzaW5lc3MgUnVsZXMgRW5naW5lLjQzNDA8L3RpdGxlPiYjeGE7CQkJPGcgaWQ9InNoYXBlMjc3OS0zIj4mI3hhOwkJCQk8dGl0bGUgaWQ9InRpdGxlODMwNzAiPlNoZWV0LjI3Nzk8L3RpdGxlPiYjeGE7CQkJCTxwYXRoIGlkPSJwYXRoODMwNzIiIGlua3NjYXBlOmNvbm5lY3Rvci1jdXJ2YXR1cmU9IjAiIHN0eWxlPSJmaWxsOiMzRjU3NjU7IiBkPSJNOTMuOTksMEMzLjYxLDAsMy42MSwwLDMuNjEsMCAgICAgIEMwLjYsMCwwLDAuNzIsMCwzLjcyYzAsNjQuMjMsMCw2NC4yMywwLDY0LjIzYzAsMywwLjYsMy42LDMuNjEsMy42YzkwLjM4LDAsOTAuMzgsMCw5MC4zOCwwYzMuMTIsMCwzLjczLTAuNiwzLjczLTMuNiAgICAgIGMwLTY0LjIzLDAtNjQuMjMsMC02NC4yM0M5Ny43MiwwLjcyLDk3LjExLDAsOTMuOTksMHoiLz4mI3hhOwkJCTwvZz4mI3hhOwkJCTxnIGlkPSJzaGFwZTI3ODAtNSIgdHJhbnNmb3JtPSJ0cmFuc2xhdGUoOTAuOTY1MSwtNjYuMjQ3OCkiPiYjeGE7CQkJCTx0aXRsZSBpZD0idGl0bGU4MzA3NSI+U2hlZXQuMjc4MDwvdGl0bGU+JiN4YTsJCQkJPHBhdGggaWQ9InBhdGg4MzA3NyIgaW5rc2NhcGU6Y29ubmVjdG9yLWN1cnZhdHVyZT0iMCIgc3R5bGU9ImZpbGw6I0ZGMDAwMDsiIGQ9Ik00LjEzLDY5LjUxYzAsMS4xNy0wLjkyLDIuMDQtMi4wNCwyLjA0ICAgICAgUzAsNzAuNjgsMCw2OS41MWMwLTEuMTIsMC45Ny0yLjAzLDIuMDktMi4wM1M0LjEzLDY4LjM5LDQuMTMsNjkuNTF6Ii8+JiN4YTsJCQk8L2c+JiN4YTsJCQk8ZyBpZD0ic2hhcGUyNzgxLTciIHRyYW5zZm9ybT0idHJhbnNsYXRlKDI1LjExOTksLTIwLjg4ODgpIj4mI3hhOwkJCQk8dGl0bGUgaWQ9InRpdGxlODMwODAiPlNoZWV0LjI3ODE8L3RpdGxlPiYjeGE7CQkJCTxwYXRoIGlkPSJwYXRoODMwODIiIGlua3NjYXBlOmNvbm5lY3Rvci1jdXJ2YXR1cmU9IjAiIHN0eWxlPSJmaWxsOiNGRkZGRkY7IiBkPSJNNDUuNzksNjEuMTFjMC0yLjQxLTEuOTItNC40NS00LjQ0LTQuNDUgICAgICBjLTYuNzQsMC02Ljc0LDAtNi43NCwwYy01Ljg4LTUuNzYtNS44OC01Ljc2LTUuODgtNS43NmMtMTQuNDMsMC0xNC40MywwLTE0LjQzLDBjLTYuMTMsNS44OC02LjEzLDUuODgtNi4xMyw1Ljg4ICAgICAgYy0zLjcyLDAuMzYtNi43MywzLjQ5LTYuNzMsNy4zM2MwLDEuNDQsMCwxLjQ0LDAsMS40NGMtMS40NCwwLTEuNDQsMC0xLjQ0LDBjMCwyLjg4LDAsMi44OCwwLDIuODhjNi4yNSwwLDYuMjUsMCw2LjI1LDAgICAgICBjMC42LDEuOCwyLjI4LDMuMTIsNC4yMSwzLjEyYzEuOTIsMCwzLjQ4LTEuMzIsNC4wOC0zLjEyYzE4LjI3LDAsMTguMjcsMCwxOC4yNywwYzAuNzIsMS44LDIuMjksMy4xMiw0LjIxLDMuMTIgICAgICBzMy40OC0xLjMyLDQuMjEtMy4xMmM2LDAsNiwwLDYsMGMwLTIuODgsMC0yLjg4LDAtMi44OGMtMS40NCwwLTEuNDQsMC0xLjQ0LDBMNDUuNzksNjEuMTF6IE00Mi45MSw2MS4xMWMwLDQuNDQsMCw0LjQ0LDAsNC40NCAgICAgIGMtMS42OCwwLTEuNjgsMC0xLjY4LDBjLTAuNzMtMS42OC0yLjI5LTMtNC4yMS0zcy0zLjQ5LDEuMzItNC4yMSwzYy0xMi4xNCwwLTEyLjE0LDAtMTIuMTQsMGMwLTUuODgsMC01Ljg4LDAtNS44OCAgICAgIGMyMC42OCwwLDIwLjY4LDAsMjAuNjgsMEM0Mi4zMSw1OS42Nyw0Mi45MSw2MC4yNyw0Mi45MSw2MS4xMXogTTMwLjQxLDU2LjY2Yy05Ljc0LDAtOS43NCwwLTkuNzQsMGMwLTIuODgsMC0yLjg4LDAtMi44OCAgICAgIGM2Ljg1LDAsNi44NSwwLDYuODUsMEwzMC40MSw1Ni42NnogTTE1LjM4LDUzLjc4YzIuNDEsMCwyLjQxLDAsMi40MSwwYzAsMi44OCwwLDIuODgsMCwyLjg4Yy01LjI5LDAtNS4yOSwwLTUuMjksMEwxNS4zOCw1My43OCAgICAgIHogTTQuNDUsNjQuMTFjMC0yLjUyLDEuOTItNC40NCw0LjU2LTQuNDRjOC43OCwwLDguNzgsMCw4Ljc4LDBjMCw1Ljg4LDAsNS44OCwwLDUuODhjLTMuMjUsMC0zLjI1LDAtMy4yNSwwICAgICAgYy0wLjYtMS42OC0yLjE2LTMtNC4wOC0zYy0xLjkzLDAtMy42MSwxLjMyLTQuMjEsM2MtMS44LDAtMS44LDAtMS44LDBMNC40NSw2NC4xMXogTTEwLjQ2LDY4LjQzYy0wLjg0LDAtMS40NS0wLjYtMS40NS0xLjQ0ICAgICAgYzAtMC43MiwwLjYxLTEuNDQsMS40NS0xLjQ0YzAuNzIsMCwxLjQ0LDAuNzIsMS40NCwxLjQ0QzExLjksNjcuODMsMTEuMTgsNjguNDMsMTAuNDYsNjguNDN6IE0zNy4wMiw2OC40MyAgICAgIGMtMC44NCwwLTEuNDQtMC42LTEuNDQtMS40NGMwLTAuNzIsMC42LTEuNDQsMS40NC0xLjQ0czEuNDQsMC43MiwxLjQ0LDEuNDRDMzguNDYsNjcuODMsMzcuODYsNjguNDMsMzcuMDIsNjguNDN6Ii8+JiN4YTsJCQk8L2c+JiN4YTsJCQk8ZyBpZD0ic2hhcGUyNzgyLTkiIHRyYW5zZm9ybT0idHJhbnNsYXRlKDIuMDk1MTksLTMuMzA2MjMpIj4mI3hhOwkJCQk8dGl0bGUgaWQ9InRpdGxlODMwODUiPlNoZWV0LjI3ODI8L3RpdGxlPiYjeGE7CQkJCTxwYXRoIGlkPSJwYXRoODMwODciIGlua3NjYXBlOmNvbm5lY3Rvci1jdXJ2YXR1cmU9IjAiIHN0eWxlPSJmaWxsOiNGRkZGRkY7IiBkPSJNMCwxMi40MXY1OS4xNGg5My4wNFYxMi40MUgweiIvPiYjeGE7CQkJPC9nPiYjeGE7CQk8L2c+JiN4YTsJCTxnIGlkPSJncm91cDI3ODMtMTEiIHRyYW5zZm9ybT0idHJhbnNsYXRlKDEyLjE0MjQsLTkuNDAwMDgpIj4mI3hhOwkJCTx0aXRsZSBpZD0idGl0bGU4MzA5MSI+T3JjaGVzdHJhdGlvbjwvdGl0bGU+JiN4YTsJCQk8ZyBpZD0ic2hhcGUyNzg0LTEyIiB0cmFuc2Zvcm09InRyYW5zbGF0ZSg1NC41MTMyLC0zNS42NTA0KSI+JiN4YTsJCQkJPHRpdGxlIGlkPSJ0aXRsZTgzMDkzIj5TaGVldC4yNzg0PC90aXRsZT4mI3hhOwkJCQk8cGF0aCBpZD0icGF0aDgzMDk1IiBpbmtzY2FwZTpjb25uZWN0b3ItY3VydmF0dXJlPSIwIiBzdHlsZT0iZmlsbDojREMzQzAwOyIgZD0iTTAsNjEuMDZ2MTAuNDloMTYuNjdWNjEuMDZIMHoiLz4mI3hhOwkJCTwvZz4mI3hhOwkJCTxnIGlkPSJzaGFwZTI3ODUtMTQiIHRyYW5zZm9ybT0idHJhbnNsYXRlKDAsLTM2Ljk3NDkpIj4mI3hhOwkJCQk8dGl0bGUgaWQ9InRpdGxlODMwOTgiPlNoZWV0LjI3ODU8L3RpdGxlPiYjeGE7CQkJCTxwYXRoIGlkPSJwYXRoODMxMDAiIGlua3NjYXBlOmNvbm5lY3Rvci1jdXJ2YXR1cmU9IjAiIHN0eWxlPSJmaWxsOiNBQUQyODg7IiBkPSJNMCw2NS4wMmMwLTAuNzIsMC41OS0xLjMxLDEuMzEtMS4zMWgxOC42MSAgICAgIGMwLjczLDAsMS4zMSwwLjU5LDEuMzEsMS4zMXY1LjIyYzAsMC43My0wLjU4LDEuMzEtMS4zMSwxLjMxSDEuMzFDMC41OSw3MS41NSwwLDcwLjk3LDAsNzAuMjRWNjUuMDJ6Ii8+JiN4YTsJCQk8L2c+JiN4YTsJCQk8ZyBpZD0ic2hhcGUyNzg2LTE2IiB0cmFuc2Zvcm09InRyYW5zbGF0ZSgyOC43ODcxLC0xNy45MTcxKSI+JiN4YTsJCQkJPHRpdGxlIGlkPSJ0aXRsZTgzMTAzIj5TaGVldC4yNzg2PC90aXRsZT4mI3hhOwkJCQk8cGF0aCBpZD0icGF0aDgzMTA1IiBpbmtzY2FwZTpjb25uZWN0b3ItY3VydmF0dXJlPSIwIiBzdHlsZT0iZmlsbDojNUI5QkQ1OyIgZD0iTTAsNjEuMzRoMTguMDN2OC4zICAgICAgYy05LjAyLDAtOS4wMiwzLjE2LTE4LjAzLDEuMzdWNjEuMzR6Ii8+JiN4YTsJCQk8L2c+JiN4YTsJCQk8ZyBpZD0ic2hhcGUyNzg3LTE4IiB0cmFuc2Zvcm09InRyYW5zbGF0ZSgyOC43ODcxLC0zNS42NTA0KSI+JiN4YTsJCQkJPHRpdGxlIGlkPSJ0aXRsZTgzMTA4Ij5TaGVldC4yNzg3PC90aXRsZT4mI3hhOwkJCQk8cGF0aCBpZD0icGF0aDgzMTEwIiBpbmtzY2FwZTpjb25uZWN0b3ItY3VydmF0dXJlPSIwIiBzdHlsZT0iZmlsbDojRUVFQTQ4OyIgZD0iTTAsNjYuMzFsMy42MS01LjI1aDEwLjgxbDMuNjEsNS4yNWwtMy42MSw1LjI0ICAgICAgSDMuNjFMMCw2Ni4zMXoiLz4mI3hhOwkJCTwvZz4mI3hhOwkJCTxnIGlkPSJzaGFwZTI3ODgtMjAiIHRyYW5zZm9ybT0idHJhbnNsYXRlKDI4Ljc4NzEpIj4mI3hhOwkJCQk8dGl0bGUgaWQ9InRpdGxlODMxMTMiPlNoZWV0LjI3ODg8L3RpdGxlPiYjeGE7CQkJCTxwYXRoIGlkPSJwYXRoODMxMTUiIGlua3NjYXBlOmNvbm5lY3Rvci1jdXJ2YXR1cmU9IjAiIHN0eWxlPSJmaWxsOiNFRUVBNDg7IiBkPSJNMCw2Ni4zMWwzLjYxLTUuMjNoMTAuODFsMy42MSw1LjIzbC0zLjYxLDUuMjQgICAgICBIMy42MUwwLDY2LjMxeiIvPiYjeGE7CQkJPC9nPiYjeGE7CQkJPGcgaWQ9InNoYXBlMjc4OS0yMiIgdHJhbnNmb3JtPSJ0cmFuc2xhdGUoNDcuMTcwNSwtMjIuMjExMikiPiYjeGE7CQkJCTx0aXRsZSBpZD0idGl0bGU4MzExOCI+U2hlZXQuMjc4OTwvdGl0bGU+JiN4YTsJCQkJPHBhdGggaWQ9InBhdGg4MzEyMCIgaW5rc2NhcGU6Y29ubmVjdG9yLWN1cnZhdHVyZT0iMCIgc3R5bGU9ImZpbGw6IzNGNTc2NTsiIGQ9Ik0xMy44Myw1OC4yNXYxMC4xNEgyLjM2di0xLjAxTDAsNjkuNDcgICAgICBsMi4zNiwyLjA4di0xaDEzLjYzdi0xMi4zTDEzLjgzLDU4LjI1eiIvPiYjeGE7CQkJPC9nPiYjeGE7CQkJPGcgaWQ9InNoYXBlMjc5MC0yNCIgdHJhbnNmb3JtPSJ0cmFuc2xhdGUoMjEuNDYyLC0zOC41NjQzKSI+JiN4YTsJCQkJPHRpdGxlIGlkPSJ0aXRsZTgzMTIzIj5TaGVldC4yNzkwPC90aXRsZT4mI3hhOwkJCQk8cGF0aCBpZD0icGF0aDgzMTI1IiBpbmtzY2FwZTpjb25uZWN0b3ItY3VydmF0dXJlPSIwIiBzdHlsZT0iZmlsbDojM0Y1NzY1OyIgZD0iTTAsNjguMDFoNC43M3YtMS4xOGwyLjM3LDIuMzZsLTIuMzcsMi4zNiAgICAgIHYtMS4xOEgwVjY4LjAxeiIvPiYjeGE7CQkJPC9nPiYjeGE7CQkJPGcgaWQ9InNoYXBlMjc5MS0yNiIgdHJhbnNmb3JtPSJ0cmFuc2xhdGUoNDcuMTE3NCwtMzguNTY0MykiPiYjeGE7CQkJCTx0aXRsZSBpZD0idGl0bGU4MzEyOCI+U2hlZXQuMjc5MTwvdGl0bGU+JiN4YTsJCQkJPHBhdGggaWQ9InBhdGg4MzEzMCIgaW5rc2NhcGU6Y29ubmVjdG9yLWN1cnZhdHVyZT0iMCIgc3R5bGU9ImZpbGw6IzNGNTc2NTsiIGQ9Ik0wLDY4LjAxaDQuNzN2LTEuMThsMi4zNywyLjM2bC0yLjM3LDIuMzYgICAgICB2LTEuMThIMFY2OC4wMXoiLz4mI3hhOwkJCTwvZz4mI3hhOwkJCTxnIGlkPSJzaGFwZTI3OTItMjgiIHRyYW5zZm9ybT0idHJhbnNsYXRlKDM1LjQzOTgsLTI4LjIyMzEpIj4mI3hhOwkJCQk8dGl0bGUgaWQ9InRpdGxlODMxMzMiPlNoZWV0LjI3OTI8L3RpdGxlPiYjeGE7CQkJCTxwYXRoIGlkPSJwYXRoODMxMzUiIGlua3NjYXBlOmNvbm5lY3Rvci1jdXJ2YXR1cmU9IjAiIHN0eWxlPSJmaWxsOiMzRjU3NjU7IiBkPSJNMy41NCw2NC40N3Y0LjcyaDEuMThsLTIuMzYsMi4zNkwwLDY5LjE5aDEuMTggICAgICB2LTQuNzJIMy41NHoiLz4mI3hhOwkJCTwvZz4mI3hhOwkJCTxnIGlkPSJzaGFwZTI3OTMtMzAiIHRyYW5zZm9ybT0idHJhbnNsYXRlKDM1LjUxMDYsLTEwLjc4NTMpIj4mI3hhOwkJCQk8dGl0bGUgaWQ9InRpdGxlODMxMzgiPlNoZWV0LjI3OTM8L3RpdGxlPiYjeGE7CQkJCTxwYXRoIGlkPSJwYXRoODMxNDAiIGlua3NjYXBlOmNvbm5lY3Rvci1jdXJ2YXR1cmU9IjAiIHN0eWxlPSJmaWxsOiMzRjU3NjU7IiBkPSJNMy41NCw2NC40N3Y0LjcyaDEuMThsLTIuMzYsMi4zNkwwLDY5LjE5aDEuMTggICAgICB2LTQuNzJIMy41NHoiLz4mI3hhOwkJCTwvZz4mI3hhOwkJPC9nPiYjeGE7CTwvZz4mI3hhOzwvZz4mI3hhOzwvc3ZnPg==;" vertex="1" parent="BVrxlMUURqbPdi6F0R62-5">
          <mxGeometry x="20.5" y="37.690000000000055" width="78" height="57.31" as="geometry" />
        </mxCell>
        <mxCell id="BVrxlMUURqbPdi6F0R62-2" value="MPO&amp;nbsp;&lt;br&gt;(&lt;b&gt;Camunda&lt;/b&gt;)" style="text;html=1;align=center;verticalAlign=middle;whiteSpace=wrap;rounded=0;" vertex="1" parent="BVrxlMUURqbPdi6F0R62-5">
          <mxGeometry x="29.5" y="97.19000000000005" width="60" height="30" as="geometry" />
        </mxCell>
        <mxCell id="BVrxlMUURqbPdi6F0R62-8" style="edgeStyle=orthogonalEdgeStyle;rounded=0;orthogonalLoop=1;jettySize=auto;html=1;exitX=0.5;exitY=0;exitDx=0;exitDy=0;entryX=0;entryY=0.5;entryDx=0;entryDy=0;flowAnimation=1;dashed=1;dashPattern=8 8;" edge="1" parent="1" source="BVrxlMUURqbPdi6F0R62-4" target="BtRRs1AipNndvJUo6PaD-1">
          <mxGeometry relative="1" as="geometry" />
        </mxCell>
        <mxCell id="BVrxlMUURqbPdi6F0R62-9" value="API" style="edgeLabel;html=1;align=center;verticalAlign=middle;resizable=0;points=[];" vertex="1" connectable="0" parent="BVrxlMUURqbPdi6F0R62-8">
          <mxGeometry x="-0.5118" y="1" relative="1" as="geometry">
            <mxPoint as="offset" />
          </mxGeometry>
        </mxCell>
        <mxCell id="BVrxlMUURqbPdi6F0R62-10" style="edgeStyle=orthogonalEdgeStyle;rounded=0;orthogonalLoop=1;jettySize=auto;html=1;exitX=0;exitY=0.75;exitDx=0;exitDy=0;entryX=0.5;entryY=1;entryDx=0;entryDy=0;dashed=1;dashPattern=8 8;flowAnimation=1;" edge="1" parent="1" target="BVrxlMUURqbPdi6F0R62-13" source="o0oqG4mP_P4ncCSwfBv9-16">
          <mxGeometry relative="1" as="geometry">
            <mxPoint x="-259" y="10" as="sourcePoint" />
          </mxGeometry>
        </mxCell>
        <mxCell id="BVrxlMUURqbPdi6F0R62-11" value="webhook" style="edgeLabel;html=1;align=center;verticalAlign=middle;resizable=0;points=[];" vertex="1" connectable="0" parent="BVrxlMUURqbPdi6F0R62-10">
          <mxGeometry x="-0.118" relative="1" as="geometry">
            <mxPoint as="offset" />
          </mxGeometry>
        </mxCell>
        <mxCell id="BVrxlMUURqbPdi6F0R62-12" value="" style="group;dashed=1;dashPattern=8 8;" vertex="1" connectable="0" parent="1">
          <mxGeometry x="-480" y="16.310000000000002" width="119" height="132.69000000000005" as="geometry" />
        </mxCell>
        <mxCell id="BVrxlMUURqbPdi6F0R62-13" value="" style="whiteSpace=wrap;html=1;fillColor=none;dashed=1;" vertex="1" parent="BVrxlMUURqbPdi6F0R62-12">
          <mxGeometry width="119" height="132.69" as="geometry" />
        </mxCell>
        <mxCell id="BVrxlMUURqbPdi6F0R62-14" value="" style="shape=image;verticalLabelPosition=bottom;labelBackgroundColor=#ffffff;verticalAlign=top;aspect=fixed;imageAspect=0;image=data:image/svg+xml,PHN2ZyB4bWxuczpjYz0iaHR0cDovL2NyZWF0aXZlY29tbW9ucy5vcmcvbnMjIiB4bWxuczpkYz0iaHR0cDovL3B1cmwub3JnL2RjL2VsZW1lbnRzLzEuMS8iIHhtbG5zOmlua3NjYXBlPSJodHRwOi8vd3d3Lmlua3NjYXBlLm9yZy9uYW1lc3BhY2VzL2lua3NjYXBlIiB4bWxuczpyZGY9Imh0dHA6Ly93d3cudzMub3JnLzE5OTkvMDIvMjItcmRmLXN5bnRheC1ucyMiIHhtbG5zOnNvZGlwb2RpPSJodHRwOi8vc29kaXBvZGkuc291cmNlZm9yZ2UubmV0L0RURC9zb2RpcG9kaS0wLmR0ZCIgeG1sbnM6c3ZnPSJodHRwOi8vd3d3LnczLm9yZy8yMDAwL3N2ZyIgeG1sbnM9Imh0dHA6Ly93d3cudzMub3JnLzIwMDAvc3ZnIiB4bWxuczp4bGluaz0iaHR0cDovL3d3dy53My5vcmcvMTk5OS94bGluayIgdmVyc2lvbj0iMS4xIiBpZD0ic3ZnODMxNDciIGlua3NjYXBlOnZlcnNpb249IjAuOTIuMyAoMjQwNTU0NiwgMjAxOC0wMy0xMSkiIHNvZGlwb2RpOmRvY25hbWU9Im9yY2hlc3RyYXRpb25fMi5zdmciIHg9IjBweCIgeT0iMHB4IiB2aWV3Qm94PSIwIDAgOTcuNzIgNzEuNTUiIHN0eWxlPSJlbmFibGUtYmFja2dyb3VuZDpuZXcgMCAwIDk3LjcyIDcxLjU1OyIgeG1sOnNwYWNlPSJwcmVzZXJ2ZSI+JiN4YTs8c29kaXBvZGk6bmFtZWR2aWV3IGJvcmRlcmNvbG9yPSIjNjY2NjY2IiBib3JkZXJvcGFjaXR5PSIxIiBmaXQtbWFyZ2luLWJvdHRvbT0iMCIgZml0LW1hcmdpbi1sZWZ0PSIwIiBmaXQtbWFyZ2luLXJpZ2h0PSIwIiBmaXQtbWFyZ2luLXRvcD0iMCIgZ3JpZHRvbGVyYW5jZT0iMTAiIGd1aWRldG9sZXJhbmNlPSIxMCIgaWQ9Im5hbWVkdmlldzgzMTQ5IiBpbmtzY2FwZTpjdXJyZW50LWxheWVyPSJzdmc4MzE0NyIgaW5rc2NhcGU6Y3g9IjY0LjYwNDgwNyIgaW5rc2NhcGU6Y3k9IjI3LjA3NTQ5MiIgaW5rc2NhcGU6cGFnZW9wYWNpdHk9IjAiIGlua3NjYXBlOnBhZ2VzaGFkb3c9IjIiIGlua3NjYXBlOndpbmRvdy1oZWlnaHQ9IjEwMTciIGlua3NjYXBlOndpbmRvdy1tYXhpbWl6ZWQ9IjEiIGlua3NjYXBlOndpbmRvdy13aWR0aD0iMTkyMCIgaW5rc2NhcGU6d2luZG93LXg9Ii04IiBpbmtzY2FwZTp3aW5kb3cteT0iLTgiIGlua3NjYXBlOnpvb209IjQuNTQ0MDE2IiBvYmplY3R0b2xlcmFuY2U9IjEwIiBwYWdlY29sb3I9IiNmZmZmZmYiIHNob3dncmlkPSJmYWxzZSI+JiN4YTsJPC9zb2RpcG9kaTpuYW1lZHZpZXc+JiN4YTs8ZyBpZD0iZzgzMTQ1IiB0cmFuc2Zvcm09InRyYW5zbGF0ZSgwLC04LjQwNzE0NjllLTUpIj4mI3hhOwk8dGl0bGUgaWQ9InRpdGxlODMwNjQiPlBhZ2UtMTwvdGl0bGU+JiN4YTsJPGcgaWQ9Imdyb3VwMjc3Ny0xIj4mI3hhOwkJPHRpdGxlIGlkPSJ0aXRsZTgzMDY2Ij5PcmNoZXN0cmF0aW9uICMyPC90aXRsZT4mI3hhOwkJPGcgaWQ9Imdyb3VwMjc3OC0yIj4mI3hhOwkJCTx0aXRsZSBpZD0idGl0bGU4MzA2OCI+QnVzaW5lc3MgUnVsZXMgRW5naW5lLjQzNDA8L3RpdGxlPiYjeGE7CQkJPGcgaWQ9InNoYXBlMjc3OS0zIj4mI3hhOwkJCQk8dGl0bGUgaWQ9InRpdGxlODMwNzAiPlNoZWV0LjI3Nzk8L3RpdGxlPiYjeGE7CQkJCTxwYXRoIGlkPSJwYXRoODMwNzIiIGlua3NjYXBlOmNvbm5lY3Rvci1jdXJ2YXR1cmU9IjAiIHN0eWxlPSJmaWxsOiMzRjU3NjU7IiBkPSJNOTMuOTksMEMzLjYxLDAsMy42MSwwLDMuNjEsMCAgICAgIEMwLjYsMCwwLDAuNzIsMCwzLjcyYzAsNjQuMjMsMCw2NC4yMywwLDY0LjIzYzAsMywwLjYsMy42LDMuNjEsMy42YzkwLjM4LDAsOTAuMzgsMCw5MC4zOCwwYzMuMTIsMCwzLjczLTAuNiwzLjczLTMuNiAgICAgIGMwLTY0LjIzLDAtNjQuMjMsMC02NC4yM0M5Ny43MiwwLjcyLDk3LjExLDAsOTMuOTksMHoiLz4mI3hhOwkJCTwvZz4mI3hhOwkJCTxnIGlkPSJzaGFwZTI3ODAtNSIgdHJhbnNmb3JtPSJ0cmFuc2xhdGUoOTAuOTY1MSwtNjYuMjQ3OCkiPiYjeGE7CQkJCTx0aXRsZSBpZD0idGl0bGU4MzA3NSI+U2hlZXQuMjc4MDwvdGl0bGU+JiN4YTsJCQkJPHBhdGggaWQ9InBhdGg4MzA3NyIgaW5rc2NhcGU6Y29ubmVjdG9yLWN1cnZhdHVyZT0iMCIgc3R5bGU9ImZpbGw6I0ZGMDAwMDsiIGQ9Ik00LjEzLDY5LjUxYzAsMS4xNy0wLjkyLDIuMDQtMi4wNCwyLjA0ICAgICAgUzAsNzAuNjgsMCw2OS41MWMwLTEuMTIsMC45Ny0yLjAzLDIuMDktMi4wM1M0LjEzLDY4LjM5LDQuMTMsNjkuNTF6Ii8+JiN4YTsJCQk8L2c+JiN4YTsJCQk8ZyBpZD0ic2hhcGUyNzgxLTciIHRyYW5zZm9ybT0idHJhbnNsYXRlKDI1LjExOTksLTIwLjg4ODgpIj4mI3hhOwkJCQk8dGl0bGUgaWQ9InRpdGxlODMwODAiPlNoZWV0LjI3ODE8L3RpdGxlPiYjeGE7CQkJCTxwYXRoIGlkPSJwYXRoODMwODIiIGlua3NjYXBlOmNvbm5lY3Rvci1jdXJ2YXR1cmU9IjAiIHN0eWxlPSJmaWxsOiNGRkZGRkY7IiBkPSJNNDUuNzksNjEuMTFjMC0yLjQxLTEuOTItNC40NS00LjQ0LTQuNDUgICAgICBjLTYuNzQsMC02Ljc0LDAtNi43NCwwYy01Ljg4LTUuNzYtNS44OC01Ljc2LTUuODgtNS43NmMtMTQuNDMsMC0xNC40MywwLTE0LjQzLDBjLTYuMTMsNS44OC02LjEzLDUuODgtNi4xMyw1Ljg4ICAgICAgYy0zLjcyLDAuMzYtNi43MywzLjQ5LTYuNzMsNy4zM2MwLDEuNDQsMCwxLjQ0LDAsMS40NGMtMS40NCwwLTEuNDQsMC0xLjQ0LDBjMCwyLjg4LDAsMi44OCwwLDIuODhjNi4yNSwwLDYuMjUsMCw2LjI1LDAgICAgICBjMC42LDEuOCwyLjI4LDMuMTIsNC4yMSwzLjEyYzEuOTIsMCwzLjQ4LTEuMzIsNC4wOC0zLjEyYzE4LjI3LDAsMTguMjcsMCwxOC4yNywwYzAuNzIsMS44LDIuMjksMy4xMiw0LjIxLDMuMTIgICAgICBzMy40OC0xLjMyLDQuMjEtMy4xMmM2LDAsNiwwLDYsMGMwLTIuODgsMC0yLjg4LDAtMi44OGMtMS40NCwwLTEuNDQsMC0xLjQ0LDBMNDUuNzksNjEuMTF6IE00Mi45MSw2MS4xMWMwLDQuNDQsMCw0LjQ0LDAsNC40NCAgICAgIGMtMS42OCwwLTEuNjgsMC0xLjY4LDBjLTAuNzMtMS42OC0yLjI5LTMtNC4yMS0zcy0zLjQ5LDEuMzItNC4yMSwzYy0xMi4xNCwwLTEyLjE0LDAtMTIuMTQsMGMwLTUuODgsMC01Ljg4LDAtNS44OCAgICAgIGMyMC42OCwwLDIwLjY4LDAsMjAuNjgsMEM0Mi4zMSw1OS42Nyw0Mi45MSw2MC4yNyw0Mi45MSw2MS4xMXogTTMwLjQxLDU2LjY2Yy05Ljc0LDAtOS43NCwwLTkuNzQsMGMwLTIuODgsMC0yLjg4LDAtMi44OCAgICAgIGM2Ljg1LDAsNi44NSwwLDYuODUsMEwzMC40MSw1Ni42NnogTTE1LjM4LDUzLjc4YzIuNDEsMCwyLjQxLDAsMi40MSwwYzAsMi44OCwwLDIuODgsMCwyLjg4Yy01LjI5LDAtNS4yOSwwLTUuMjksMEwxNS4zOCw1My43OCAgICAgIHogTTQuNDUsNjQuMTFjMC0yLjUyLDEuOTItNC40NCw0LjU2LTQuNDRjOC43OCwwLDguNzgsMCw4Ljc4LDBjMCw1Ljg4LDAsNS44OCwwLDUuODhjLTMuMjUsMC0zLjI1LDAtMy4yNSwwICAgICAgYy0wLjYtMS42OC0yLjE2LTMtNC4wOC0zYy0xLjkzLDAtMy42MSwxLjMyLTQuMjEsM2MtMS44LDAtMS44LDAtMS44LDBMNC40NSw2NC4xMXogTTEwLjQ2LDY4LjQzYy0wLjg0LDAtMS40NS0wLjYtMS40NS0xLjQ0ICAgICAgYzAtMC43MiwwLjYxLTEuNDQsMS40NS0xLjQ0YzAuNzIsMCwxLjQ0LDAuNzIsMS40NCwxLjQ0QzExLjksNjcuODMsMTEuMTgsNjguNDMsMTAuNDYsNjguNDN6IE0zNy4wMiw2OC40MyAgICAgIGMtMC44NCwwLTEuNDQtMC42LTEuNDQtMS40NGMwLTAuNzIsMC42LTEuNDQsMS40NC0xLjQ0czEuNDQsMC43MiwxLjQ0LDEuNDRDMzguNDYsNjcuODMsMzcuODYsNjguNDMsMzcuMDIsNjguNDN6Ii8+JiN4YTsJCQk8L2c+JiN4YTsJCQk8ZyBpZD0ic2hhcGUyNzgyLTkiIHRyYW5zZm9ybT0idHJhbnNsYXRlKDIuMDk1MTksLTMuMzA2MjMpIj4mI3hhOwkJCQk8dGl0bGUgaWQ9InRpdGxlODMwODUiPlNoZWV0LjI3ODI8L3RpdGxlPiYjeGE7CQkJCTxwYXRoIGlkPSJwYXRoODMwODciIGlua3NjYXBlOmNvbm5lY3Rvci1jdXJ2YXR1cmU9IjAiIHN0eWxlPSJmaWxsOiNGRkZGRkY7IiBkPSJNMCwxMi40MXY1OS4xNGg5My4wNFYxMi40MUgweiIvPiYjeGE7CQkJPC9nPiYjeGE7CQk8L2c+JiN4YTsJCTxnIGlkPSJncm91cDI3ODMtMTEiIHRyYW5zZm9ybT0idHJhbnNsYXRlKDEyLjE0MjQsLTkuNDAwMDgpIj4mI3hhOwkJCTx0aXRsZSBpZD0idGl0bGU4MzA5MSI+T3JjaGVzdHJhdGlvbjwvdGl0bGU+JiN4YTsJCQk8ZyBpZD0ic2hhcGUyNzg0LTEyIiB0cmFuc2Zvcm09InRyYW5zbGF0ZSg1NC41MTMyLC0zNS42NTA0KSI+JiN4YTsJCQkJPHRpdGxlIGlkPSJ0aXRsZTgzMDkzIj5TaGVldC4yNzg0PC90aXRsZT4mI3hhOwkJCQk8cGF0aCBpZD0icGF0aDgzMDk1IiBpbmtzY2FwZTpjb25uZWN0b3ItY3VydmF0dXJlPSIwIiBzdHlsZT0iZmlsbDojREMzQzAwOyIgZD0iTTAsNjEuMDZ2MTAuNDloMTYuNjdWNjEuMDZIMHoiLz4mI3hhOwkJCTwvZz4mI3hhOwkJCTxnIGlkPSJzaGFwZTI3ODUtMTQiIHRyYW5zZm9ybT0idHJhbnNsYXRlKDAsLTM2Ljk3NDkpIj4mI3hhOwkJCQk8dGl0bGUgaWQ9InRpdGxlODMwOTgiPlNoZWV0LjI3ODU8L3RpdGxlPiYjeGE7CQkJCTxwYXRoIGlkPSJwYXRoODMxMDAiIGlua3NjYXBlOmNvbm5lY3Rvci1jdXJ2YXR1cmU9IjAiIHN0eWxlPSJmaWxsOiNBQUQyODg7IiBkPSJNMCw2NS4wMmMwLTAuNzIsMC41OS0xLjMxLDEuMzEtMS4zMWgxOC42MSAgICAgIGMwLjczLDAsMS4zMSwwLjU5LDEuMzEsMS4zMXY1LjIyYzAsMC43My0wLjU4LDEuMzEtMS4zMSwxLjMxSDEuMzFDMC41OSw3MS41NSwwLDcwLjk3LDAsNzAuMjRWNjUuMDJ6Ii8+JiN4YTsJCQk8L2c+JiN4YTsJCQk8ZyBpZD0ic2hhcGUyNzg2LTE2IiB0cmFuc2Zvcm09InRyYW5zbGF0ZSgyOC43ODcxLC0xNy45MTcxKSI+JiN4YTsJCQkJPHRpdGxlIGlkPSJ0aXRsZTgzMTAzIj5TaGVldC4yNzg2PC90aXRsZT4mI3hhOwkJCQk8cGF0aCBpZD0icGF0aDgzMTA1IiBpbmtzY2FwZTpjb25uZWN0b3ItY3VydmF0dXJlPSIwIiBzdHlsZT0iZmlsbDojNUI5QkQ1OyIgZD0iTTAsNjEuMzRoMTguMDN2OC4zICAgICAgYy05LjAyLDAtOS4wMiwzLjE2LTE4LjAzLDEuMzdWNjEuMzR6Ii8+JiN4YTsJCQk8L2c+JiN4YTsJCQk8ZyBpZD0ic2hhcGUyNzg3LTE4IiB0cmFuc2Zvcm09InRyYW5zbGF0ZSgyOC43ODcxLC0zNS42NTA0KSI+JiN4YTsJCQkJPHRpdGxlIGlkPSJ0aXRsZTgzMTA4Ij5TaGVldC4yNzg3PC90aXRsZT4mI3hhOwkJCQk8cGF0aCBpZD0icGF0aDgzMTEwIiBpbmtzY2FwZTpjb25uZWN0b3ItY3VydmF0dXJlPSIwIiBzdHlsZT0iZmlsbDojRUVFQTQ4OyIgZD0iTTAsNjYuMzFsMy42MS01LjI1aDEwLjgxbDMuNjEsNS4yNWwtMy42MSw1LjI0ICAgICAgSDMuNjFMMCw2Ni4zMXoiLz4mI3hhOwkJCTwvZz4mI3hhOwkJCTxnIGlkPSJzaGFwZTI3ODgtMjAiIHRyYW5zZm9ybT0idHJhbnNsYXRlKDI4Ljc4NzEpIj4mI3hhOwkJCQk8dGl0bGUgaWQ9InRpdGxlODMxMTMiPlNoZWV0LjI3ODg8L3RpdGxlPiYjeGE7CQkJCTxwYXRoIGlkPSJwYXRoODMxMTUiIGlua3NjYXBlOmNvbm5lY3Rvci1jdXJ2YXR1cmU9IjAiIHN0eWxlPSJmaWxsOiNFRUVBNDg7IiBkPSJNMCw2Ni4zMWwzLjYxLTUuMjNoMTAuODFsMy42MSw1LjIzbC0zLjYxLDUuMjQgICAgICBIMy42MUwwLDY2LjMxeiIvPiYjeGE7CQkJPC9nPiYjeGE7CQkJPGcgaWQ9InNoYXBlMjc4OS0yMiIgdHJhbnNmb3JtPSJ0cmFuc2xhdGUoNDcuMTcwNSwtMjIuMjExMikiPiYjeGE7CQkJCTx0aXRsZSBpZD0idGl0bGU4MzExOCI+U2hlZXQuMjc4OTwvdGl0bGU+JiN4YTsJCQkJPHBhdGggaWQ9InBhdGg4MzEyMCIgaW5rc2NhcGU6Y29ubmVjdG9yLWN1cnZhdHVyZT0iMCIgc3R5bGU9ImZpbGw6IzNGNTc2NTsiIGQ9Ik0xMy44Myw1OC4yNXYxMC4xNEgyLjM2di0xLjAxTDAsNjkuNDcgICAgICBsMi4zNiwyLjA4di0xaDEzLjYzdi0xMi4zTDEzLjgzLDU4LjI1eiIvPiYjeGE7CQkJPC9nPiYjeGE7CQkJPGcgaWQ9InNoYXBlMjc5MC0yNCIgdHJhbnNmb3JtPSJ0cmFuc2xhdGUoMjEuNDYyLC0zOC41NjQzKSI+JiN4YTsJCQkJPHRpdGxlIGlkPSJ0aXRsZTgzMTIzIj5TaGVldC4yNzkwPC90aXRsZT4mI3hhOwkJCQk8cGF0aCBpZD0icGF0aDgzMTI1IiBpbmtzY2FwZTpjb25uZWN0b3ItY3VydmF0dXJlPSIwIiBzdHlsZT0iZmlsbDojM0Y1NzY1OyIgZD0iTTAsNjguMDFoNC43M3YtMS4xOGwyLjM3LDIuMzZsLTIuMzcsMi4zNiAgICAgIHYtMS4xOEgwVjY4LjAxeiIvPiYjeGE7CQkJPC9nPiYjeGE7CQkJPGcgaWQ9InNoYXBlMjc5MS0yNiIgdHJhbnNmb3JtPSJ0cmFuc2xhdGUoNDcuMTE3NCwtMzguNTY0MykiPiYjeGE7CQkJCTx0aXRsZSBpZD0idGl0bGU4MzEyOCI+U2hlZXQuMjc5MTwvdGl0bGU+JiN4YTsJCQkJPHBhdGggaWQ9InBhdGg4MzEzMCIgaW5rc2NhcGU6Y29ubmVjdG9yLWN1cnZhdHVyZT0iMCIgc3R5bGU9ImZpbGw6IzNGNTc2NTsiIGQ9Ik0wLDY4LjAxaDQuNzN2LTEuMThsMi4zNywyLjM2bC0yLjM3LDIuMzYgICAgICB2LTEuMThIMFY2OC4wMXoiLz4mI3hhOwkJCTwvZz4mI3hhOwkJCTxnIGlkPSJzaGFwZTI3OTItMjgiIHRyYW5zZm9ybT0idHJhbnNsYXRlKDM1LjQzOTgsLTI4LjIyMzEpIj4mI3hhOwkJCQk8dGl0bGUgaWQ9InRpdGxlODMxMzMiPlNoZWV0LjI3OTI8L3RpdGxlPiYjeGE7CQkJCTxwYXRoIGlkPSJwYXRoODMxMzUiIGlua3NjYXBlOmNvbm5lY3Rvci1jdXJ2YXR1cmU9IjAiIHN0eWxlPSJmaWxsOiMzRjU3NjU7IiBkPSJNMy41NCw2NC40N3Y0LjcyaDEuMThsLTIuMzYsMi4zNkwwLDY5LjE5aDEuMTggICAgICB2LTQuNzJIMy41NHoiLz4mI3hhOwkJCTwvZz4mI3hhOwkJCTxnIGlkPSJzaGFwZTI3OTMtMzAiIHRyYW5zZm9ybT0idHJhbnNsYXRlKDM1LjUxMDYsLTEwLjc4NTMpIj4mI3hhOwkJCQk8dGl0bGUgaWQ9InRpdGxlODMxMzgiPlNoZWV0LjI3OTM8L3RpdGxlPiYjeGE7CQkJCTxwYXRoIGlkPSJwYXRoODMxNDAiIGlua3NjYXBlOmNvbm5lY3Rvci1jdXJ2YXR1cmU9IjAiIHN0eWxlPSJmaWxsOiMzRjU3NjU7IiBkPSJNMy41NCw2NC40N3Y0LjcyaDEuMThsLTIuMzYsMi4zNkwwLDY5LjE5aDEuMTggICAgICB2LTQuNzJIMy41NHoiLz4mI3hhOwkJCTwvZz4mI3hhOwkJPC9nPiYjeGE7CTwvZz4mI3hhOzwvZz4mI3hhOzwvc3ZnPg==;" vertex="1" parent="BVrxlMUURqbPdi6F0R62-12">
          <mxGeometry x="20.5" y="37.690000000000055" width="78" height="57.31" as="geometry" />
        </mxCell>
        <mxCell id="BVrxlMUURqbPdi6F0R62-15" value="MPO (&lt;b&gt;Corezoid&lt;/b&gt;)" style="text;html=1;align=center;verticalAlign=middle;whiteSpace=wrap;rounded=0;" vertex="1" parent="BVrxlMUURqbPdi6F0R62-12">
          <mxGeometry x="29.5" y="97.19000000000005" width="60" height="30" as="geometry" />
        </mxCell>
        <mxCell id="BVrxlMUURqbPdi6F0R62-16" style="edgeStyle=orthogonalEdgeStyle;rounded=0;orthogonalLoop=1;jettySize=auto;html=1;exitX=0.5;exitY=0;exitDx=0;exitDy=0;entryX=0.75;entryY=0;entryDx=0;entryDy=0;flowAnimation=1;dashed=1;dashPattern=8 8;" edge="1" parent="1" source="BVrxlMUURqbPdi6F0R62-13" target="o0oqG4mP_P4ncCSwfBv9-16">
          <mxGeometry relative="1" as="geometry">
            <mxPoint x="-319" y="-40" as="targetPoint" />
          </mxGeometry>
        </mxCell>
        <mxCell id="BVrxlMUURqbPdi6F0R62-18" value="API" style="edgeLabel;html=1;align=center;verticalAlign=middle;resizable=0;points=[];" vertex="1" connectable="0" parent="BVrxlMUURqbPdi6F0R62-16">
          <mxGeometry x="0.5962" y="4" relative="1" as="geometry">
            <mxPoint as="offset" />
          </mxGeometry>
        </mxCell>
        <mxCell id="BVrxlMUURqbPdi6F0R62-25" style="edgeStyle=orthogonalEdgeStyle;rounded=0;orthogonalLoop=1;jettySize=auto;html=1;exitX=0;exitY=0.5;exitDx=0;exitDy=0;dashed=1;flowAnimation=1;entryX=0;entryY=0.5;entryDx=0;entryDy=0;" edge="1" parent="1" source="HeFp6EwtRoWDKLP-dGdm-38" target="HeFp6EwtRoWDKLP-dGdm-29">
          <mxGeometry relative="1" as="geometry">
            <mxPoint x="327.29" y="1119" as="sourcePoint" />
            <mxPoint x="272.29" y="860" as="targetPoint" />
          </mxGeometry>
        </mxCell>
        <mxCell id="BVrxlMUURqbPdi6F0R62-26" value="webhook" style="edgeLabel;html=1;align=center;verticalAlign=middle;resizable=0;points=[];" vertex="1" connectable="0" parent="BVrxlMUURqbPdi6F0R62-25">
          <mxGeometry x="-0.0481" y="-1" relative="1" as="geometry">
            <mxPoint y="-16" as="offset" />
          </mxGeometry>
        </mxCell>
      </root>
    </mxGraphModel>
  </diagram>
</mxfile>
